<svg width="121" height="38" viewBox="0 0 121 38" fill="none" xmlns="http://www.w3.org/2000/svg">
<rect width="121" height="38" rx="5" fill="#C2DD54"/>
<path d="M29.986 22.264H26.318L25.73 24H23.224L26.78 14.172H29.552L33.108 24H30.574L29.986 22.264ZM29.37 20.416L28.152 16.818L26.948 20.416H29.37ZM34.2043 19.072C34.2043 18.1013 34.4143 17.238 34.8343 16.482C35.2543 15.7167 35.8376 15.124 36.5843 14.704C37.3403 14.2747 38.1943 14.06 39.1463 14.06C40.3129 14.06 41.3116 14.368 42.1423 14.984C42.9729 15.6 43.5283 16.44 43.8083 17.504H41.1763C40.9803 17.0933 40.7003 16.7807 40.3363 16.566C39.9816 16.3513 39.5756 16.244 39.1183 16.244C38.3809 16.244 37.7836 16.5007 37.3263 17.014C36.8689 17.5273 36.6403 18.2133 36.6403 19.072C36.6403 19.9307 36.8689 20.6167 37.3263 21.13C37.7836 21.6433 38.3809 21.9 39.1183 21.9C39.5756 21.9 39.9816 21.7927 40.3363 21.578C40.7003 21.3633 40.9803 21.0507 41.1763 20.64H43.8083C43.5283 21.704 42.9729 22.544 42.1423 23.16C41.3116 23.7667 40.3129 24.07 39.1463 24.07C38.1943 24.07 37.3403 23.86 36.5843 23.44C35.8376 23.0107 35.2543 22.418 34.8343 21.662C34.4143 20.906 34.2043 20.0427 34.2043 19.072ZM52.7643 14.172V16.09H50.1603V24H47.7663V16.09H45.1623V14.172H52.7643ZM56.7798 14.172V24H54.3858V14.172H56.7798ZM68.1607 14.172L64.6747 24H61.6787L58.1927 14.172H60.7407L63.1767 21.592L65.6267 14.172H68.1607ZM75.6993 22.264H72.0313L71.4433 24H68.9373L72.4933 14.172H75.2653L78.8213 24H76.2873L75.6993 22.264ZM75.0833 20.416L73.8653 16.818L72.6613 20.416H75.0833ZM87.3935 14.172V16.09H84.7895V24H82.3955V16.09H79.7915V14.172H87.3935ZM91.409 16.09V18.078H94.615V19.926H91.409V22.082H95.035V24H89.015V14.172H95.035V16.09H91.409Z" fill="white"/>
</svg>
