<svg width="142" height="59" viewBox="0 0 142 59" fill="none" xmlns="http://www.w3.org/2000/svg">
<g filter="url(#filter0_d_28_12)">
<rect x="4" width="134" height="51" rx="7" fill="#C2DD54"/>
</g>
<path d="M30.8565 25.718C30.8565 24.494 31.1385 23.396 31.7025 22.424C32.2785 21.452 33.0525 20.696 34.0245 20.156C35.0085 19.604 36.0825 19.328 37.2465 19.328C38.5785 19.328 39.7605 19.658 40.7925 20.318C41.8365 20.966 42.5925 21.89 43.0605 23.09H40.5945C40.2705 22.43 39.8205 21.938 39.2445 21.614C38.6685 21.29 38.0025 21.128 37.2465 21.128C36.4185 21.128 35.6805 21.314 35.0325 21.686C34.3845 22.058 33.8745 22.592 33.5025 23.288C33.1425 23.984 32.9625 24.794 32.9625 25.718C32.9625 26.642 33.1425 27.452 33.5025 28.148C33.8745 28.844 34.3845 29.384 35.0325 29.768C35.6805 30.14 36.4185 30.326 37.2465 30.326C38.0025 30.326 38.6685 30.164 39.2445 29.84C39.8205 29.516 40.2705 29.024 40.5945 28.364H43.0605C42.5925 29.564 41.8365 30.488 40.7925 31.136C39.7605 31.784 38.5785 32.108 37.2465 32.108C36.0705 32.108 34.9965 31.838 34.0245 31.298C33.0525 30.746 32.2785 29.984 31.7025 29.012C31.1385 28.04 30.8565 26.942 30.8565 25.718ZM50.3044 32.162C49.3684 32.162 48.5224 31.952 47.7664 31.532C47.0104 31.1 46.4164 30.5 45.9844 29.732C45.5524 28.952 45.3364 28.052 45.3364 27.032C45.3364 26.024 45.5584 25.13 46.0024 24.35C46.4464 23.57 47.0524 22.97 47.8204 22.55C48.5884 22.13 49.4464 21.92 50.3944 21.92C51.3424 21.92 52.2004 22.13 52.9684 22.55C53.7364 22.97 54.3424 23.57 54.7864 24.35C55.2304 25.13 55.4524 26.024 55.4524 27.032C55.4524 28.04 55.2244 28.934 54.7684 29.714C54.3124 30.494 53.6884 31.1 52.8964 31.532C52.1164 31.952 51.2524 32.162 50.3044 32.162ZM50.3044 30.38C50.8324 30.38 51.3244 30.254 51.7804 30.002C52.2484 29.75 52.6264 29.372 52.9144 28.868C53.2024 28.364 53.3464 27.752 53.3464 27.032C53.3464 26.312 53.2084 25.706 52.9324 25.214C52.6564 24.71 52.2904 24.332 51.8344 24.08C51.3784 23.828 50.8864 23.702 50.3584 23.702C49.8304 23.702 49.3384 23.828 48.8824 24.08C48.4384 24.332 48.0844 24.71 47.8204 25.214C47.5564 25.706 47.4244 26.312 47.4244 27.032C47.4244 28.1 47.6944 28.928 48.2344 29.516C48.7864 30.092 49.4764 30.38 50.3044 30.38ZM63.0249 21.92C63.8049 21.92 64.5009 22.082 65.1129 22.406C65.7369 22.73 66.2229 23.21 66.5709 23.846C66.9189 24.482 67.0929 25.25 67.0929 26.15V32H65.0589V26.456C65.0589 25.568 64.8369 24.89 64.3929 24.422C63.9489 23.942 63.3429 23.702 62.5749 23.702C61.8069 23.702 61.1949 23.942 60.7389 24.422C60.2949 24.89 60.0729 25.568 60.0729 26.456V32H58.0209V22.082H60.0729V23.216C60.4089 22.808 60.8349 22.49 61.3509 22.262C61.8789 22.034 62.4369 21.92 63.0249 21.92ZM75.2544 21.92C76.0344 21.92 76.7304 22.082 77.3424 22.406C77.9664 22.73 78.4524 23.21 78.8004 23.846C79.1484 24.482 79.3224 25.25 79.3224 26.15V32H77.2884V26.456C77.2884 25.568 77.0664 24.89 76.6224 24.422C76.1784 23.942 75.5724 23.702 74.8044 23.702C74.0364 23.702 73.4244 23.942 72.9684 24.422C72.5244 24.89 72.3024 25.568 72.3024 26.456V32H70.2504V22.082H72.3024V23.216C72.6384 22.808 73.0644 22.49 73.5804 22.262C74.1084 22.034 74.6664 21.92 75.2544 21.92ZM91.5698 26.798C91.5698 27.17 91.5458 27.506 91.4978 27.806H83.9198C83.9798 28.598 84.2738 29.234 84.8018 29.714C85.3298 30.194 85.9778 30.434 86.7458 30.434C87.8498 30.434 88.6298 29.972 89.0858 29.048H91.2998C90.9998 29.96 90.4538 30.71 89.6618 31.298C88.8818 31.874 87.9098 32.162 86.7458 32.162C85.7978 32.162 84.9458 31.952 84.1898 31.532C83.4458 31.1 82.8578 30.5 82.4258 29.732C82.0058 28.952 81.7958 28.052 81.7958 27.032C81.7958 26.012 81.9998 25.118 82.4078 24.35C82.8278 23.57 83.4098 22.97 84.1538 22.55C84.9098 22.13 85.7738 21.92 86.7458 21.92C87.6818 21.92 88.5158 22.124 89.2478 22.532C89.9798 22.94 90.5498 23.516 90.9578 24.26C91.3658 24.992 91.5698 25.838 91.5698 26.798ZM89.4278 26.15C89.4158 25.394 89.1458 24.788 88.6178 24.332C88.0898 23.876 87.4358 23.648 86.6558 23.648C85.9478 23.648 85.3418 23.876 84.8378 24.332C84.3338 24.776 84.0338 25.382 83.9378 26.15H89.4278ZM93.4452 27.032C93.4452 26.012 93.6492 25.118 94.0572 24.35C94.4772 23.57 95.0532 22.97 95.7852 22.55C96.5172 22.13 97.3572 21.92 98.3052 21.92C99.5052 21.92 100.495 22.208 101.275 22.784C102.067 23.348 102.601 24.158 102.877 25.214H100.663C100.483 24.722 100.195 24.338 99.7992 24.062C99.4032 23.786 98.9052 23.648 98.3052 23.648C97.4652 23.648 96.7932 23.948 96.2892 24.548C95.7972 25.136 95.5512 25.964 95.5512 27.032C95.5512 28.1 95.7972 28.934 96.2892 29.534C96.7932 30.134 97.4652 30.434 98.3052 30.434C99.4932 30.434 100.279 29.912 100.663 28.868H102.877C102.589 29.876 102.049 30.68 101.257 31.28C100.465 31.868 99.4812 32.162 98.3052 32.162C97.3572 32.162 96.5172 31.952 95.7852 31.532C95.0532 31.1 94.4772 30.5 94.0572 29.732C93.6492 28.952 93.4452 28.052 93.4452 27.032ZM107.856 23.756V29.246C107.856 29.618 107.94 29.888 108.108 30.056C108.288 30.212 108.588 30.29 109.008 30.29H110.268V32H108.648C107.724 32 107.016 31.784 106.524 31.352C106.032 30.92 105.786 30.218 105.786 29.246V23.756H104.616V22.082H105.786V19.616H107.856V22.082H110.268V23.756H107.856Z" fill="#FDFDFD"/>
<defs>
<filter id="filter0_d_28_12" x="0" y="0" width="142" height="59" filterUnits="userSpaceOnUse" color-interpolation-filters="sRGB">
<feFlood flood-opacity="0" result="BackgroundImageFix"/>
<feColorMatrix in="SourceAlpha" type="matrix" values="0 0 0 0 0 0 0 0 0 0 0 0 0 0 0 0 0 0 127 0" result="hardAlpha"/>
<feOffset dy="4"/>
<feGaussianBlur stdDeviation="2"/>
<feComposite in2="hardAlpha" operator="out"/>
<feColorMatrix type="matrix" values="0 0 0 0 0 0 0 0 0 0 0 0 0 0 0 0 0 0 0.15 0"/>
<feBlend mode="normal" in2="BackgroundImageFix" result="effect1_dropShadow_28_12"/>
<feBlend mode="normal" in="SourceGraphic" in2="effect1_dropShadow_28_12" result="shape"/>
</filter>
</defs>
</svg>
