<svg width="121" height="38" viewBox="0 0 121 38" fill="none" xmlns="http://www.w3.org/2000/svg">
<rect width="121" height="38" rx="5" fill="#E44949"/>
<path d="M19.55 14.172C20.586 14.172 21.4913 14.3773 22.266 14.788C23.0407 15.1987 23.638 15.7773 24.058 16.524C24.4873 17.2613 24.702 18.1153 24.702 19.086C24.702 20.0473 24.4873 20.9013 24.058 21.648C23.638 22.3947 23.036 22.9733 22.252 23.384C21.4773 23.7947 20.5767 24 19.55 24H15.868V14.172H19.55ZM19.396 21.928C20.3013 21.928 21.006 21.6807 21.51 21.186C22.014 20.6913 22.266 19.9913 22.266 19.086C22.266 18.1807 22.014 17.476 21.51 16.972C21.006 16.468 20.3013 16.216 19.396 16.216H18.262V21.928H19.396ZM28.8539 16.09V18.078H32.0599V19.926H28.8539V22.082H32.4799V24H26.4599V14.172H32.4799V16.09H28.8539ZM40.5721 22.264H36.9041L36.3161 24H33.8101L37.3661 14.172H40.1381L43.6941 24H41.1601L40.5721 22.264ZM39.9561 20.416L38.7381 16.818L37.5341 20.416H39.9561ZM44.7904 19.072C44.7904 18.1013 45.0004 17.238 45.4204 16.482C45.8404 15.7167 46.4237 15.124 47.1704 14.704C47.9264 14.2747 48.7804 14.06 49.7324 14.06C50.899 14.06 51.8977 14.368 52.7284 14.984C53.559 15.6 54.1144 16.44 54.3944 17.504H51.7624C51.5664 17.0933 51.2864 16.7807 50.9224 16.566C50.5677 16.3513 50.1617 16.244 49.7044 16.244C48.967 16.244 48.3697 16.5007 47.9124 17.014C47.455 17.5273 47.2264 18.2133 47.2264 19.072C47.2264 19.9307 47.455 20.6167 47.9124 21.13C48.3697 21.6433 48.967 21.9 49.7044 21.9C50.1617 21.9 50.5677 21.7927 50.9224 21.578C51.2864 21.3633 51.5664 21.0507 51.7624 20.64H54.3944C54.1144 21.704 53.559 22.544 52.7284 23.16C51.8977 23.7667 50.899 24.07 49.7324 24.07C48.7804 24.07 47.9264 23.86 47.1704 23.44C46.4237 23.0107 45.8404 22.418 45.4204 21.662C45.0004 20.906 44.7904 20.0427 44.7904 19.072ZM63.3504 14.172V16.09H60.7464V24H58.3524V16.09H55.7484V14.172H63.3504ZM67.3659 14.172V24H64.9719V14.172H67.3659ZM78.7468 14.172L75.2608 24H72.2648L68.7788 14.172H71.3268L73.7628 21.592L76.2128 14.172H78.7468ZM86.2854 22.264H82.6174L82.0294 24H79.5234L83.0794 14.172H85.8514L89.4074 24H86.8734L86.2854 22.264ZM85.6694 20.416L84.4514 16.818L83.2474 20.416H85.6694ZM97.9796 14.172V16.09H95.3756V24H92.9816V16.09H90.3776V14.172H97.9796ZM101.995 16.09V18.078H105.201V19.926H101.995V22.082H105.621V24H99.6011V14.172H105.621V16.09H101.995Z" fill="white"/>
</svg>
