<svg width="28" height="54" viewBox="0 0 28 54" fill="none" xmlns="http://www.w3.org/2000/svg">
<path d="M3.11719 38.625V50H1.15625V38.625H3.11719ZM7.75781 43.6016V45.1562H2.61719V43.6016H7.75781ZM8.40625 38.625V40.1875H2.61719V38.625H8.40625ZM14.7612 48.3047V44.2734C14.7612 43.9714 14.7066 43.7109 14.5972 43.4922C14.4878 43.2734 14.3211 43.1042 14.0972 42.9844C13.8784 42.8646 13.6024 42.8047 13.2691 42.8047C12.9618 42.8047 12.6961 42.8568 12.4722 42.9609C12.2482 43.0651 12.0737 43.2057 11.9487 43.3828C11.8237 43.5599 11.7612 43.7604 11.7612 43.9844H9.88625C9.88625 43.651 9.96698 43.3281 10.1284 43.0156C10.2899 42.7031 10.5243 42.4245 10.8316 42.1797C11.1389 41.9349 11.506 41.7422 11.9331 41.6016C12.3602 41.4609 12.8394 41.3906 13.3706 41.3906C14.006 41.3906 14.5685 41.4974 15.0581 41.7109C15.5529 41.9245 15.9409 42.2474 16.2222 42.6797C16.5086 43.1068 16.6519 43.6432 16.6519 44.2891V48.0469C16.6519 48.4323 16.6779 48.7786 16.73 49.0859C16.7873 49.388 16.868 49.651 16.9722 49.875V50H15.0425C14.954 49.7969 14.8836 49.5391 14.8316 49.2266C14.7847 48.9089 14.7612 48.6016 14.7612 48.3047ZM15.0347 44.8594L15.0503 46.0234H13.6987C13.3498 46.0234 13.0425 46.0573 12.7769 46.125C12.5112 46.1875 12.2899 46.2812 12.1128 46.4062C11.9357 46.5312 11.8029 46.6823 11.7144 46.8594C11.6258 47.0365 11.5816 47.237 11.5816 47.4609C11.5816 47.6849 11.6336 47.8906 11.7378 48.0781C11.842 48.2604 11.993 48.4036 12.1909 48.5078C12.3941 48.612 12.6389 48.6641 12.9253 48.6641C13.3107 48.6641 13.6467 48.5859 13.9331 48.4297C14.2248 48.2682 14.454 48.0729 14.6206 47.8438C14.7873 47.6094 14.8758 47.388 14.8862 47.1797L15.4956 48.0156C15.4331 48.2292 15.3264 48.4583 15.1753 48.7031C15.0243 48.9479 14.8264 49.1823 14.5816 49.4062C14.342 49.625 14.0529 49.8047 13.7144 49.9453C13.381 50.0859 12.9956 50.1562 12.5581 50.1562C12.006 50.1562 11.5139 50.0469 11.0816 49.8281C10.6493 49.6042 10.3107 49.3047 10.0659 48.9297C9.82115 48.5495 9.69875 48.1198 9.69875 47.6406C9.69875 47.1927 9.78208 46.7969 9.94875 46.4531C10.1206 46.1042 10.3706 45.8125 10.6987 45.5781C11.0321 45.3438 11.4383 45.1667 11.9175 45.0469C12.3967 44.9219 12.9435 44.8594 13.5581 44.8594H15.0347ZM20.9678 43.3516V50H19.085V41.5469H20.8584L20.9678 43.3516ZM20.6319 45.4609L20.0225 45.4531C20.0277 44.8542 20.111 44.3047 20.2725 43.8047C20.4392 43.3047 20.6683 42.875 20.96 42.5156C21.2569 42.1562 21.611 41.8802 22.0225 41.6875C22.434 41.4896 22.8923 41.3906 23.3975 41.3906C23.8037 41.3906 24.1709 41.4479 24.4991 41.5625C24.8324 41.6719 25.1162 41.8516 25.3506 42.1016C25.5902 42.3516 25.7725 42.6771 25.8975 43.0781C26.0225 43.474 26.085 43.9609 26.085 44.5391V50H24.1944V44.5312C24.1944 44.125 24.1345 43.8047 24.0147 43.5703C23.9001 43.3307 23.7308 43.1615 23.5069 43.0625C23.2881 42.9583 23.0147 42.9062 22.6866 42.9062C22.3636 42.9062 22.0746 42.974 21.8194 43.1094C21.5642 43.2448 21.348 43.4297 21.1709 43.6641C20.9991 43.8984 20.8662 44.1693 20.7725 44.4766C20.6787 44.7839 20.6319 45.112 20.6319 45.4609Z" fill="#63676A"/>
<path d="M8.5 0V2.63158H12.25V9.56579C11.475 10.0395 11 10.9079 11 11.8421V13.1579H16V11.8421C16 10.9079 15.525 10.0395 14.75 9.56579V2.63158H18.5V0H8.5ZM6 11.8421C3.2375 11.8421 1 12.7237 1 13.8158C1 14.9079 3.2375 15.7895 6 15.7895C8.7625 15.7895 11 14.9079 11 13.8158C11 12.7237 8.7625 11.8421 6 11.8421ZM21 11.8421C18.2375 11.8421 16 12.7237 16 13.8158C16 14.9079 18.2375 15.7895 21 15.7895C23.7625 15.7895 26 14.9079 26 13.8158C26 12.7237 23.7625 11.8421 21 11.8421ZM11 14.4737V15.7895C11 16.7368 11.475 17.6053 12.25 18.0658C13.025 18.5395 13.975 18.5395 14.75 18.0658C15.525 17.6053 16 16.7237 16 15.7895V14.4737H11ZM14.75 21.0526V25H12.25V21.0526H14.75ZM18.35 17.7105L21 20.5132L19.2375 22.3684L16.5875 19.5789L18.35 17.7105ZM10.425 19.5789L7.7625 22.3684L6 20.5132L8.65 17.7237L10.425 19.5789Z" fill="#C2DD54"/>
</svg>
