<svg width="369" height="75" viewBox="0 0 369 75" fill="none" xmlns="http://www.w3.org/2000/svg">
<g filter="url(#filter0_dd_3_564)">
<rect x="4.96716" y="4" width="356" height="63" rx="10" fill="white"/>
<rect x="5.46716" y="4.5" width="355" height="62" rx="9.5" stroke="#C2DD54"/>
</g>
<path d="M105.912 44.154C104.842 44.154 103.874 43.9707 103.008 43.604C102.158 43.2373 101.483 42.7093 100.984 42.02C100.486 41.3307 100.229 40.5167 100.214 39.578H103.514C103.558 40.2087 103.778 40.7073 104.174 41.074C104.585 41.4407 105.142 41.624 105.846 41.624C106.565 41.624 107.13 41.4553 107.54 41.118C107.951 40.766 108.156 40.3113 108.156 39.754C108.156 39.2993 108.017 38.9253 107.738 38.632C107.46 38.3387 107.108 38.1113 106.682 37.95C106.272 37.774 105.7 37.5833 104.966 37.378C103.969 37.0847 103.155 36.7987 102.524 36.52C101.908 36.2267 101.373 35.794 100.918 35.222C100.478 34.6353 100.258 33.858 100.258 32.89C100.258 31.9807 100.486 31.1887 100.94 30.514C101.395 29.8393 102.033 29.326 102.854 28.974C103.676 28.6073 104.614 28.424 105.67 28.424C107.254 28.424 108.538 28.8127 109.52 29.59C110.518 30.3527 111.068 31.4233 111.17 32.802H107.782C107.753 32.274 107.526 31.8413 107.1 31.504C106.69 31.152 106.14 30.976 105.45 30.976C104.849 30.976 104.365 31.13 103.998 31.438C103.646 31.746 103.47 32.1933 103.47 32.78C103.47 33.1907 103.602 33.5353 103.866 33.814C104.145 34.078 104.482 34.298 104.878 34.474C105.289 34.6353 105.861 34.826 106.594 35.046C107.592 35.3393 108.406 35.6327 109.036 35.926C109.667 36.2193 110.21 36.6593 110.664 37.246C111.119 37.8327 111.346 38.6027 111.346 39.556C111.346 40.3773 111.134 41.14 110.708 41.844C110.283 42.548 109.66 43.1127 108.838 43.538C108.017 43.9487 107.042 44.154 105.912 44.154ZM115.138 30.36C114.596 30.36 114.141 30.1913 113.774 29.854C113.422 29.502 113.246 29.0693 113.246 28.556C113.246 28.0427 113.422 27.6173 113.774 27.28C114.141 26.928 114.596 26.752 115.138 26.752C115.681 26.752 116.128 26.928 116.48 27.28C116.847 27.6173 117.03 28.0427 117.03 28.556C117.03 29.0693 116.847 29.502 116.48 29.854C116.128 30.1913 115.681 30.36 115.138 30.36ZM116.656 31.812V44H113.576V31.812H116.656ZM124.033 31.614C124.943 31.614 125.742 31.7973 126.431 32.164C127.121 32.516 127.663 32.978 128.059 33.55V31.812H131.161V44.088C131.161 45.2173 130.934 46.222 130.48 47.102C130.025 47.9967 129.343 48.7007 128.433 49.214C127.524 49.742 126.424 50.006 125.133 50.006C123.403 50.006 121.98 49.6027 120.865 48.796C119.765 47.9893 119.142 46.8893 118.995 45.496H122.053C122.215 46.0533 122.559 46.4933 123.087 46.816C123.63 47.1533 124.283 47.322 125.045 47.322C125.94 47.322 126.666 47.0507 127.223 46.508C127.781 45.98 128.059 45.1733 128.059 44.088V42.196C127.663 42.768 127.113 43.2447 126.409 43.626C125.72 44.0073 124.928 44.198 124.033 44.198C123.007 44.198 122.068 43.934 121.217 43.406C120.367 42.878 119.692 42.1373 119.193 41.184C118.709 40.216 118.467 39.1087 118.467 37.862C118.467 36.63 118.709 35.5373 119.193 34.584C119.692 33.6307 120.359 32.8973 121.195 32.384C122.046 31.8707 122.992 31.614 124.033 31.614ZM128.059 37.906C128.059 37.158 127.913 36.52 127.619 35.992C127.326 35.4493 126.93 35.0387 126.431 34.76C125.933 34.4667 125.397 34.32 124.825 34.32C124.253 34.32 123.725 34.4593 123.241 34.738C122.757 35.0167 122.361 35.4273 122.053 35.97C121.76 36.498 121.613 37.1287 121.613 37.862C121.613 38.5953 121.76 39.2407 122.053 39.798C122.361 40.3407 122.757 40.7587 123.241 41.052C123.74 41.3453 124.268 41.492 124.825 41.492C125.397 41.492 125.933 41.3527 126.431 41.074C126.93 40.7807 127.326 40.37 127.619 39.842C127.913 39.2993 128.059 38.654 128.059 37.906ZM140.484 31.636C141.936 31.636 143.109 32.098 144.004 33.022C144.898 33.9313 145.346 35.2073 145.346 36.85V44H142.266V37.268C142.266 36.3 142.024 35.5593 141.54 35.046C141.056 34.518 140.396 34.254 139.56 34.254C138.709 34.254 138.034 34.518 137.536 35.046C137.052 35.5593 136.81 36.3 136.81 37.268V44H133.73V31.812H136.81V33.33C137.22 32.802 137.741 32.3913 138.372 32.098C139.017 31.79 139.721 31.636 140.484 31.636ZM154.199 30.36C153.656 30.36 153.201 30.1913 152.835 29.854C152.483 29.502 152.307 29.0693 152.307 28.556C152.307 28.0427 152.483 27.6173 152.835 27.28C153.201 26.928 153.656 26.752 154.199 26.752C154.741 26.752 155.189 26.928 155.541 27.28C155.907 27.6173 156.091 28.0427 156.091 28.556C156.091 29.0693 155.907 29.502 155.541 29.854C155.189 30.1913 154.741 30.36 154.199 30.36ZM155.717 31.812V44H152.637V31.812H155.717ZM165.074 31.636C166.526 31.636 167.699 32.098 168.594 33.022C169.488 33.9313 169.936 35.2073 169.936 36.85V44H166.856V37.268C166.856 36.3 166.614 35.5593 166.13 35.046C165.646 34.518 164.986 34.254 164.15 34.254C163.299 34.254 162.624 34.518 162.126 35.046C161.642 35.5593 161.4 36.3 161.4 37.268V44H158.32V31.812H161.4V33.33C161.81 32.802 162.331 32.3913 162.962 32.098C163.607 31.79 164.311 31.636 165.074 31.636ZM197.753 28.644L193.463 44H189.833L186.951 33.066L183.937 44L180.329 44.022L176.193 28.644H179.493L182.199 40.568L185.323 28.644H188.755L191.703 40.502L194.431 28.644H197.753ZM200.886 30.36C200.343 30.36 199.889 30.1913 199.522 29.854C199.17 29.502 198.994 29.0693 198.994 28.556C198.994 28.0427 199.17 27.6173 199.522 27.28C199.889 26.928 200.343 26.752 200.886 26.752C201.429 26.752 201.876 26.928 202.228 27.28C202.595 27.6173 202.778 28.0427 202.778 28.556C202.778 29.0693 202.595 29.502 202.228 29.854C201.876 30.1913 201.429 30.36 200.886 30.36ZM202.404 31.812V44H199.324V31.812H202.404ZM208.593 34.342V40.238C208.593 40.6487 208.688 40.9493 208.879 41.14C209.084 41.316 209.422 41.404 209.891 41.404H211.321V44H209.385C206.789 44 205.491 42.7387 205.491 40.216V34.342H204.039V31.812H205.491V28.798H208.593V31.812H211.321V34.342H208.593ZM219.96 31.636C220.884 31.636 221.706 31.8413 222.424 32.252C223.143 32.648 223.7 33.242 224.096 34.034C224.507 34.8113 224.712 35.75 224.712 36.85V44H221.632V37.268C221.632 36.3 221.39 35.5593 220.906 35.046C220.422 34.518 219.762 34.254 218.926 34.254C218.076 34.254 217.401 34.518 216.902 35.046C216.418 35.5593 216.176 36.3 216.176 37.268V44H213.096V27.72H216.176V33.33C216.572 32.802 217.1 32.3913 217.76 32.098C218.42 31.79 219.154 31.636 219.96 31.636ZM242.695 33.264C242.343 32.6187 241.859 32.1273 241.243 31.79C240.627 31.4527 239.909 31.284 239.087 31.284C238.178 31.284 237.371 31.4893 236.667 31.9C235.963 32.3107 235.413 32.8973 235.017 33.66C234.621 34.4227 234.423 35.3027 234.423 36.3C234.423 37.3267 234.621 38.2213 235.017 38.984C235.428 39.7467 235.993 40.3333 236.711 40.744C237.43 41.1547 238.266 41.36 239.219 41.36C240.393 41.36 241.353 41.052 242.101 40.436C242.849 39.8053 243.341 38.9327 243.575 37.818H238.295V35.464H246.611V38.148C246.406 39.2187 245.966 40.2087 245.291 41.118C244.617 42.0273 243.744 42.7607 242.673 43.318C241.617 43.8607 240.429 44.132 239.109 44.132C237.628 44.132 236.286 43.802 235.083 43.142C233.895 42.4673 232.957 41.536 232.267 40.348C231.593 39.16 231.255 37.8107 231.255 36.3C231.255 34.7893 231.593 33.44 232.267 32.252C232.957 31.0493 233.895 30.118 235.083 29.458C236.286 28.7833 237.621 28.446 239.087 28.446C240.818 28.446 242.321 28.8713 243.597 29.722C244.873 30.558 245.753 31.7387 246.237 33.264H242.695ZM253.862 44.198C252.689 44.198 251.633 43.9413 250.694 43.428C249.756 42.9 249.015 42.1593 248.472 41.206C247.944 40.2527 247.68 39.1527 247.68 37.906C247.68 36.6593 247.952 35.5593 248.494 34.606C249.052 33.6527 249.807 32.9193 250.76 32.406C251.714 31.878 252.777 31.614 253.95 31.614C255.124 31.614 256.187 31.878 257.14 32.406C258.094 32.9193 258.842 33.6527 259.384 34.606C259.942 35.5593 260.22 36.6593 260.22 37.906C260.22 39.1527 259.934 40.2527 259.362 41.206C258.805 42.1593 258.042 42.9 257.074 43.428C256.121 43.9413 255.05 44.198 253.862 44.198ZM253.862 41.514C254.42 41.514 254.94 41.382 255.424 41.118C255.923 40.8393 256.319 40.4287 256.612 39.886C256.906 39.3433 257.052 38.6833 257.052 37.906C257.052 36.7473 256.744 35.86 256.128 35.244C255.527 34.6133 254.786 34.298 253.906 34.298C253.026 34.298 252.286 34.6133 251.684 35.244C251.098 35.86 250.804 36.7473 250.804 37.906C250.804 39.0647 251.09 39.9593 251.662 40.59C252.249 41.206 252.982 41.514 253.862 41.514ZM267.451 44.198C266.278 44.198 265.222 43.9413 264.283 43.428C263.345 42.9 262.604 42.1593 262.061 41.206C261.533 40.2527 261.269 39.1527 261.269 37.906C261.269 36.6593 261.541 35.5593 262.083 34.606C262.641 33.6527 263.396 32.9193 264.349 32.406C265.303 31.878 266.366 31.614 267.539 31.614C268.713 31.614 269.776 31.878 270.729 32.406C271.683 32.9193 272.431 33.6527 272.973 34.606C273.531 35.5593 273.809 36.6593 273.809 37.906C273.809 39.1527 273.523 40.2527 272.951 41.206C272.394 42.1593 271.631 42.9 270.663 43.428C269.71 43.9413 268.639 44.198 267.451 44.198ZM267.451 41.514C268.009 41.514 268.529 41.382 269.013 41.118C269.512 40.8393 269.908 40.4287 270.201 39.886C270.495 39.3433 270.641 38.6833 270.641 37.906C270.641 36.7473 270.333 35.86 269.717 35.244C269.116 34.6133 268.375 34.298 267.495 34.298C266.615 34.298 265.875 34.6133 265.273 35.244C264.687 35.86 264.393 36.7473 264.393 37.906C264.393 39.0647 264.679 39.9593 265.251 40.59C265.838 41.206 266.571 41.514 267.451 41.514ZM280.403 31.614C281.312 31.614 282.111 31.7973 282.801 32.164C283.49 32.516 284.033 32.978 284.429 33.55V31.812H287.531V44.088C287.531 45.2173 287.303 46.222 286.849 47.102C286.394 47.9967 285.712 48.7007 284.803 49.214C283.893 49.742 282.793 50.006 281.503 50.006C279.772 50.006 278.349 49.6027 277.235 48.796C276.135 47.9893 275.511 46.8893 275.365 45.496H278.423C278.584 46.0533 278.929 46.4933 279.457 46.816C279.999 47.1533 280.652 47.322 281.415 47.322C282.309 47.322 283.035 47.0507 283.593 46.508C284.15 45.98 284.429 45.1733 284.429 44.088V42.196C284.033 42.768 283.483 43.2447 282.779 43.626C282.089 44.0073 281.297 44.198 280.403 44.198C279.376 44.198 278.437 43.934 277.587 43.406C276.736 42.878 276.061 42.1373 275.563 41.184C275.079 40.216 274.837 39.1087 274.837 37.862C274.837 36.63 275.079 35.5373 275.563 34.584C276.061 33.6307 276.729 32.8973 277.565 32.384C278.415 31.8707 279.361 31.614 280.403 31.614ZM284.429 37.906C284.429 37.158 284.282 36.52 283.989 35.992C283.695 35.4493 283.299 35.0387 282.801 34.76C282.302 34.4667 281.767 34.32 281.195 34.32C280.623 34.32 280.095 34.4593 279.611 34.738C279.127 35.0167 278.731 35.4273 278.423 35.97C278.129 36.498 277.983 37.1287 277.983 37.862C277.983 38.5953 278.129 39.2407 278.423 39.798C278.731 40.3407 279.127 40.7587 279.611 41.052C280.109 41.3453 280.637 41.492 281.195 41.492C281.767 41.492 282.302 41.3527 282.801 41.074C283.299 40.7807 283.695 40.37 283.989 39.842C284.282 39.2993 284.429 38.654 284.429 37.906ZM293.179 27.72V44H290.099V27.72H293.179ZM307.112 37.642C307.112 38.082 307.083 38.478 307.024 38.83H298.114C298.187 39.71 298.495 40.3993 299.038 40.898C299.581 41.3967 300.248 41.646 301.04 41.646C302.184 41.646 302.998 41.1547 303.482 40.172H306.804C306.452 41.3453 305.777 42.3133 304.78 43.076C303.783 43.824 302.558 44.198 301.106 44.198C299.933 44.198 298.877 43.9413 297.938 43.428C297.014 42.9 296.288 42.1593 295.76 41.206C295.247 40.2527 294.99 39.1527 294.99 37.906C294.99 36.6447 295.247 35.5373 295.76 34.584C296.273 33.6307 296.992 32.8973 297.916 32.384C298.84 31.8707 299.903 31.614 301.106 31.614C302.265 31.614 303.299 31.8633 304.208 32.362C305.132 32.8607 305.843 33.572 306.342 34.496C306.855 35.4053 307.112 36.454 307.112 37.642ZM303.922 36.762C303.907 35.97 303.621 35.3393 303.064 34.87C302.507 34.386 301.825 34.144 301.018 34.144C300.255 34.144 299.61 34.3787 299.082 34.848C298.569 35.3027 298.253 35.9407 298.136 36.762H303.922Z" fill="#9F9A9A"/>
<path d="M85.947 32.7332H84.809V32.6745H72.0945V38.3255H80.0785C78.9137 41.615 75.7838 43.9764 72.0945 43.9764C67.4134 43.9764 63.6181 40.1811 63.6181 35.5C63.6181 30.8189 67.4134 27.0236 72.0945 27.0236C74.2552 27.0236 76.2211 27.8387 77.7178 29.1702L81.7138 25.1743C79.1906 22.8228 75.8156 21.3727 72.0945 21.3727C64.2927 21.3727 57.9672 27.6982 57.9672 35.5C57.9672 43.3018 64.2927 49.6273 72.0945 49.6273C79.8963 49.6273 86.2218 43.3018 86.2218 35.5C86.2218 34.5528 86.1243 33.6281 85.947 32.7332Z" fill="#FFC107"/>
<path d="M59.5959 28.9244L64.2375 32.3284C65.4934 29.219 68.535 27.0236 72.0944 27.0236C74.2551 27.0236 76.221 27.8387 77.7178 29.1702L81.7137 25.1743C79.1905 22.8228 75.8155 21.3727 72.0944 21.3727C66.6681 21.3727 61.9623 24.4362 59.5959 28.9244Z" fill="#FF3D00"/>
<path d="M72.0945 49.6273C75.7436 49.6273 79.0593 48.2308 81.5662 45.9599L77.1938 42.2599C75.7278 43.3748 73.9364 43.9778 72.0945 43.9764C68.42 43.9764 65.3 41.6334 64.1246 38.3636L59.5177 41.9131C61.8558 46.4882 66.604 49.6273 72.0945 49.6273Z" fill="#4CAF50"/>
<path d="M85.947 32.7331H84.8091V32.6745H72.0945V38.3254H80.0785C79.5214 39.891 78.5177 41.2591 77.1916 42.2606L77.1937 42.2592L81.5661 45.9591C81.2567 46.2403 86.2218 42.5636 86.2218 35.5C86.2218 34.5527 86.1243 33.6281 85.947 32.7331Z" fill="#1976D2"/>
<defs>
<filter id="filter0_dd_3_564" x="0.967163" y="0" width="368" height="75" filterUnits="userSpaceOnUse" color-interpolation-filters="sRGB">
<feFlood flood-opacity="0" result="BackgroundImageFix"/>
<feColorMatrix in="SourceAlpha" type="matrix" values="0 0 0 0 0 0 0 0 0 0 0 0 0 0 0 0 0 0 127 0" result="hardAlpha"/>
<feOffset dx="4" dy="4"/>
<feGaussianBlur stdDeviation="2"/>
<feComposite in2="hardAlpha" operator="out"/>
<feColorMatrix type="matrix" values="0 0 0 0 0 0 0 0 0 0 0 0 0 0 0 0 0 0 0.1 0"/>
<feBlend mode="normal" in2="BackgroundImageFix" result="effect1_dropShadow_3_564"/>
<feColorMatrix in="SourceAlpha" type="matrix" values="0 0 0 0 0 0 0 0 0 0 0 0 0 0 0 0 0 0 127 0" result="hardAlpha"/>
<feOffset dx="-2" dy="-2"/>
<feGaussianBlur stdDeviation="1"/>
<feComposite in2="hardAlpha" operator="out"/>
<feColorMatrix type="matrix" values="0 0 0 0 0 0 0 0 0 0 0 0 0 0 0 0 0 0 0.04 0"/>
<feBlend mode="normal" in2="effect1_dropShadow_3_564" result="effect2_dropShadow_3_564"/>
<feBlend mode="normal" in="SourceGraphic" in2="effect2_dropShadow_3_564" result="shape"/>
</filter>
</defs>
</svg>
