<svg width="51" height="54" viewBox="0 0 51 54" fill="none" xmlns="http://www.w3.org/2000/svg">
<path d="M8.67188 43.375V44.9297H2.63281V43.375H8.67188ZM3.11719 38.625V50H1.15625V38.625H3.11719ZM10.1797 38.625V50H8.22656V38.625H10.1797ZM16.5347 50.1562C15.9097 50.1562 15.3446 50.0547 14.8394 49.8516C14.3394 49.6432 13.9123 49.3542 13.5581 48.9844C13.2092 48.6146 12.9409 48.1797 12.7534 47.6797C12.5659 47.1797 12.4722 46.6406 12.4722 46.0625V45.75C12.4722 45.0885 12.5685 44.4896 12.7612 43.9531C12.954 43.4167 13.2222 42.9583 13.5659 42.5781C13.9097 42.1927 14.3159 41.8984 14.7847 41.6953C15.2534 41.4922 15.7612 41.3906 16.3081 41.3906C16.9123 41.3906 17.4409 41.4922 17.8941 41.6953C18.3472 41.8984 18.7222 42.1849 19.0191 42.5547C19.3211 42.9193 19.5451 43.3542 19.6909 43.8594C19.842 44.3646 19.9175 44.9219 19.9175 45.5312V46.3359H13.3862V44.9844H18.0581V44.8359C18.0477 44.4974 17.98 44.1797 17.855 43.8828C17.7352 43.5859 17.5503 43.3464 17.3003 43.1641C17.0503 42.9818 16.717 42.8906 16.3003 42.8906C15.9878 42.8906 15.7092 42.9583 15.4644 43.0938C15.2248 43.224 15.0243 43.4141 14.8628 43.6641C14.7014 43.9141 14.5764 44.2161 14.4878 44.5703C14.4045 44.9193 14.3628 45.3125 14.3628 45.75V46.0625C14.3628 46.4323 14.4123 46.776 14.5112 47.0938C14.6154 47.4062 14.7665 47.6797 14.9644 47.9141C15.1623 48.1484 15.4019 48.3333 15.6831 48.4688C15.9644 48.599 16.2847 48.6641 16.6441 48.6641C17.0972 48.6641 17.5008 48.5729 17.855 48.3906C18.2092 48.2083 18.5165 47.9505 18.7769 47.6172L19.7691 48.5781C19.5868 48.8438 19.3498 49.099 19.0581 49.3438C18.7665 49.5833 18.4097 49.7786 17.9878 49.9297C17.5711 50.0807 17.0868 50.1562 16.5347 50.1562ZM26.6319 48.3047V44.2734C26.6319 43.9714 26.5772 43.7109 26.4678 43.4922C26.3584 43.2734 26.1918 43.1042 25.9678 42.9844C25.7491 42.8646 25.473 42.8047 25.1397 42.8047C24.8324 42.8047 24.5668 42.8568 24.3428 42.9609C24.1189 43.0651 23.9444 43.2057 23.8194 43.3828C23.6944 43.5599 23.6319 43.7604 23.6319 43.9844H21.7569C21.7569 43.651 21.8376 43.3281 21.9991 43.0156C22.1605 42.7031 22.3949 42.4245 22.7022 42.1797C23.0095 41.9349 23.3767 41.7422 23.8037 41.6016C24.2308 41.4609 24.71 41.3906 25.2412 41.3906C25.8767 41.3906 26.4392 41.4974 26.9287 41.7109C27.4235 41.9245 27.8116 42.2474 28.0928 42.6797C28.3793 43.1068 28.5225 43.6432 28.5225 44.2891V48.0469C28.5225 48.4323 28.5485 48.7786 28.6006 49.0859C28.6579 49.388 28.7386 49.651 28.8428 49.875V50H26.9131C26.8246 49.7969 26.7543 49.5391 26.7022 49.2266C26.6553 48.9089 26.6319 48.6016 26.6319 48.3047ZM26.9053 44.8594L26.9209 46.0234H25.5694C25.2204 46.0234 24.9131 46.0573 24.6475 46.125C24.3819 46.1875 24.1605 46.2812 23.9834 46.4062C23.8064 46.5312 23.6735 46.6823 23.585 46.8594C23.4965 47.0365 23.4522 47.237 23.4522 47.4609C23.4522 47.6849 23.5043 47.8906 23.6084 48.0781C23.7126 48.2604 23.8636 48.4036 24.0616 48.5078C24.2647 48.612 24.5095 48.6641 24.7959 48.6641C25.1814 48.6641 25.5173 48.5859 25.8037 48.4297C26.0954 48.2682 26.3246 48.0729 26.4912 47.8438C26.6579 47.6094 26.7465 47.388 26.7569 47.1797L27.3662 48.0156C27.3037 48.2292 27.197 48.4583 27.0459 48.7031C26.8949 48.9479 26.697 49.1823 26.4522 49.4062C26.2126 49.625 25.9235 49.8047 25.585 49.9453C25.2517 50.0859 24.8662 50.1562 24.4287 50.1562C23.8767 50.1562 23.3845 50.0469 22.9522 49.8281C22.5199 49.6042 22.1814 49.3047 21.9366 48.9297C21.6918 48.5495 21.5694 48.1198 21.5694 47.6406C21.5694 47.1927 21.6527 46.7969 21.8194 46.4531C21.9912 46.1042 22.2412 45.8125 22.5694 45.5781C22.9027 45.3438 23.309 45.1667 23.7881 45.0469C24.2673 44.9219 24.8142 44.8594 25.4287 44.8594H26.9053ZM34.8463 41.5469V42.9219H30.0806V41.5469H34.8463ZM31.4556 39.4766H33.3384V47.6641C33.3384 47.9245 33.3749 48.125 33.4478 48.2656C33.5259 48.401 33.6327 48.4922 33.7681 48.5391C33.9035 48.5859 34.0624 48.6094 34.2447 48.6094C34.3749 48.6094 34.4999 48.6016 34.6197 48.5859C34.7395 48.5703 34.8358 48.5547 34.9088 48.5391L34.9166 49.9766C34.7603 50.0234 34.578 50.0651 34.3697 50.1016C34.1666 50.138 33.9322 50.1562 33.6666 50.1562C33.2343 50.1562 32.8515 50.0807 32.5181 49.9297C32.1848 49.7734 31.9244 49.5208 31.7369 49.1719C31.5494 48.8229 31.4556 48.3594 31.4556 47.7812V39.4766ZM40.5059 50.1562C39.8809 50.1562 39.3158 50.0547 38.8106 49.8516C38.3106 49.6432 37.8835 49.3542 37.5294 48.9844C37.1804 48.6146 36.9122 48.1797 36.7247 47.6797C36.5372 47.1797 36.4434 46.6406 36.4434 46.0625V45.75C36.4434 45.0885 36.5398 44.4896 36.7325 43.9531C36.9252 43.4167 37.1934 42.9583 37.5372 42.5781C37.8809 42.1927 38.2872 41.8984 38.7559 41.6953C39.2247 41.4922 39.7325 41.3906 40.2794 41.3906C40.8835 41.3906 41.4122 41.4922 41.8653 41.6953C42.3184 41.8984 42.6934 42.1849 42.9903 42.5547C43.2924 42.9193 43.5164 43.3542 43.6622 43.8594C43.8132 44.3646 43.8887 44.9219 43.8887 45.5312V46.3359H37.3575V44.9844H42.0294V44.8359C42.019 44.4974 41.9512 44.1797 41.8262 43.8828C41.7065 43.5859 41.5216 43.3464 41.2716 43.1641C41.0216 42.9818 40.6882 42.8906 40.2716 42.8906C39.9591 42.8906 39.6804 42.9583 39.4356 43.0938C39.196 43.224 38.9955 43.4141 38.8341 43.6641C38.6726 43.9141 38.5476 44.2161 38.4591 44.5703C38.3757 44.9193 38.3341 45.3125 38.3341 45.75V46.0625C38.3341 46.4323 38.3835 46.776 38.4825 47.0938C38.5867 47.4062 38.7377 47.6797 38.9356 47.9141C39.1335 48.1484 39.3731 48.3333 39.6544 48.4688C39.9356 48.599 40.2559 48.6641 40.6153 48.6641C41.0684 48.6641 41.4721 48.5729 41.8262 48.3906C42.1804 48.2083 42.4877 47.9505 42.7481 47.6172L43.7403 48.5781C43.558 48.8438 43.321 49.099 43.0294 49.3438C42.7377 49.5833 42.3809 49.7786 41.9591 49.9297C41.5424 50.0807 41.058 50.1562 40.5059 50.1562ZM47.7281 43.1562V50H45.8453V41.5469H47.6422L47.7281 43.1562ZM50.3141 41.4922L50.2984 43.2422C50.1839 43.2214 50.0589 43.2057 49.9234 43.1953C49.7932 43.1849 49.663 43.1797 49.5328 43.1797C49.2099 43.1797 48.926 43.2266 48.6813 43.3203C48.4365 43.4089 48.2307 43.5391 48.0641 43.7109C47.9026 43.8776 47.7776 44.0807 47.6891 44.3203C47.6005 44.5599 47.5484 44.8281 47.5328 45.125L47.1031 45.1562C47.1031 44.625 47.1552 44.1328 47.2594 43.6797C47.3635 43.2266 47.5198 42.8281 47.7281 42.4844C47.9417 42.1406 48.2073 41.8724 48.525 41.6797C48.8479 41.487 49.2203 41.3906 49.6422 41.3906C49.7568 41.3906 49.8792 41.401 50.0094 41.4219C50.1448 41.4427 50.2464 41.4661 50.3141 41.4922Z" fill="#63676A"/>
<path d="M29.5714 25H21.4286V23.75H29.5714V25ZM35 2.5L29.5714 0H21.4286L16 2.5H35ZM20.0714 3.75L20.6143 5H30.3857L30.9286 3.75H20.0714ZM22.7857 10H24.1429V16.25C23.3286 16.25 22.7857 16.75 22.7857 17.5V22.5H28.2143V17.5C28.2143 16.75 27.6714 16.25 26.8571 16.25V10H28.2143L28.7571 8.75H22.2429L22.7857 10ZM21.7 7.5H29.3L29.8429 6.25H21.1571L21.7 7.5Z" fill="#C2DD54"/>
</svg>
