<svg width="30" height="29" viewBox="0 0 30 29" fill="none" xmlns="http://www.w3.org/2000/svg">
<path d="M28.48 25.3332V14.8978C28.4801 14.1718 28.3301 13.4534 28.0393 12.7867C27.7484 12.1199 27.3228 11.5188 26.7885 11.0202L16.8349 1.72896C16.3336 1.26083 15.6699 1 14.98 1C14.2902 1 13.6264 1.26083 13.1251 1.72896L3.17159 11.0202C2.63729 11.5188 2.21168 12.1199 1.92081 12.7867C1.62995 13.4534 1.47996 14.1718 1.48004 14.8978V25.3332C1.48004 26.0405 1.7645 26.7188 2.27085 27.2189C2.7772 27.719 3.46396 28 4.18004 28H25.78C26.4961 28 27.1829 27.719 27.6892 27.2189C28.1956 26.7188 28.48 26.0405 28.48 25.3332Z" stroke="#444444" stroke-width="1.836" stroke-linecap="round" stroke-linejoin="round"/>
</svg>
