<svg width="39" height="55" viewBox="0 0 39 55" fill="none" xmlns="http://www.w3.org/2000/svg">
<path d="M33.48 25.3332V14.8978C33.4801 14.1718 33.3301 13.4534 33.0392 12.7867C32.7484 12.1199 32.3228 11.5188 31.7885 11.0202L21.8349 1.72896C21.3336 1.26083 20.6699 1 19.98 1C19.2901 1 18.6264 1.26083 18.1251 1.72896L8.17156 11.0202C7.63726 11.5188 7.21165 12.1199 6.92078 12.7867C6.62992 13.4534 6.47993 14.1718 6.48001 14.8978V25.3332C6.48001 26.0405 6.76447 26.7188 7.27082 27.2189C7.77717 27.719 8.46393 28 9.18001 28H30.78C31.4961 28 32.1829 27.719 32.6892 27.2189C33.1955 26.7188 33.48 26.0405 33.48 25.3332Z" stroke="#444444" stroke-width="1.836" stroke-linecap="round" stroke-linejoin="round"/>
<path d="M7.95745 40.5269V49.56H6.77809V45.4646H2.1773V49.56H0.997935V40.5269H2.1773V44.4926H6.77809V40.5269H7.95745ZM13.0687 49.6766C12.4034 49.6766 11.7986 49.5254 11.2543 49.223C10.7186 48.9206 10.2952 48.493 9.98418 47.94C9.68178 47.3784 9.53058 46.7304 9.53058 45.996C9.53058 45.2702 9.6861 44.6309 9.99714 44.0779C10.3168 43.5163 10.7488 43.0886 11.2931 42.7949C11.8375 42.4925 12.4466 42.3413 13.1205 42.3413C13.7944 42.3413 14.4035 42.4925 14.9479 42.7949C15.4922 43.0886 15.9199 43.512 16.2309 44.065C16.5506 44.6179 16.7104 45.2616 16.7104 45.996C16.7104 46.7304 16.5463 47.3784 16.2179 47.94C15.8983 48.493 15.4619 48.9206 14.909 49.223C14.356 49.5254 13.7426 49.6766 13.0687 49.6766ZM13.0687 48.6398C13.492 48.6398 13.8895 48.5405 14.261 48.3418C14.6325 48.143 14.9306 47.845 15.1552 47.4475C15.3885 47.0501 15.5051 46.5662 15.5051 45.996C15.5051 45.4258 15.3928 44.9419 15.1682 44.5445C14.9435 44.147 14.6498 43.8533 14.2869 43.6632C13.924 43.4645 13.5309 43.3651 13.1075 43.3651C12.6755 43.3651 12.2781 43.4645 11.9152 43.6632C11.561 43.8533 11.2759 44.147 11.0599 44.5445C10.8439 44.9419 10.7359 45.4258 10.7359 45.996C10.7359 46.5749 10.8395 47.063 11.0469 47.4605C11.2629 47.8579 11.548 48.156 11.9023 48.3547C12.2565 48.5448 12.6453 48.6398 13.0687 48.6398ZM26.8017 42.3283C27.3547 42.3283 27.8471 42.445 28.2791 42.6782C28.7111 42.9029 29.0524 43.2442 29.303 43.7021C29.5535 44.16 29.6788 44.7173 29.6788 45.3739V49.56H28.5124V45.5424C28.5124 44.8339 28.3353 44.2939 27.9811 43.9224C27.6355 43.5422 27.1646 43.3522 26.5684 43.3522C25.955 43.3522 25.4668 43.5509 25.1039 43.9483C24.7411 44.3371 24.5596 44.903 24.5596 45.6461V49.56H23.3932V45.5424C23.3932 44.8339 23.2161 44.2939 22.8619 43.9224C22.5163 43.5422 22.0454 43.3522 21.4492 43.3522C20.8358 43.3522 20.3476 43.5509 19.9847 43.9483C19.6219 44.3371 19.4404 44.903 19.4404 45.6461V49.56H18.2611V42.4579H19.4404V43.4818C19.6737 43.1102 19.9847 42.8251 20.3735 42.6264C20.771 42.4277 21.2073 42.3283 21.6825 42.3283C22.2787 42.3283 22.8057 42.4622 23.2636 42.7301C23.7215 42.9979 24.0628 43.391 24.2875 43.9094C24.4862 43.4083 24.8145 43.0195 25.2724 42.743C25.7303 42.4666 26.2401 42.3283 26.8017 42.3283ZM38.0934 45.7368C38.0934 45.9614 38.0804 46.199 38.0545 46.4496H32.378C32.4212 47.1494 32.6588 47.6981 33.0908 48.0955C33.5315 48.4843 34.0628 48.6787 34.6849 48.6787C35.1947 48.6787 35.618 48.5621 35.955 48.3288C36.3006 48.0869 36.5425 47.7672 36.6808 47.3698H37.9508C37.7608 48.0523 37.3806 48.6096 36.8104 49.0416C36.2401 49.465 35.5316 49.6766 34.6849 49.6766C34.011 49.6766 33.4062 49.5254 32.8705 49.223C32.3435 48.9206 31.9288 48.493 31.6264 47.94C31.324 47.3784 31.1728 46.7304 31.1728 45.996C31.1728 45.2616 31.3196 44.6179 31.6134 44.065C31.9072 43.512 32.3176 43.0886 32.8446 42.7949C33.3803 42.4925 33.9937 42.3413 34.6849 42.3413C35.3588 42.3413 35.955 42.4882 36.4734 42.7819C36.9918 43.0757 37.3892 43.4818 37.6657 44.0002C37.9508 44.5099 38.0934 45.0888 38.0934 45.7368ZM36.8752 45.4906C36.8752 45.0413 36.7758 44.6568 36.5771 44.3371C36.3784 44.0088 36.1062 43.7626 35.7606 43.5984C35.4236 43.4256 35.0478 43.3392 34.6331 43.3392C34.0369 43.3392 33.5272 43.5293 33.1038 43.9094C32.6891 44.2896 32.4515 44.8166 32.391 45.4906H36.8752Z" fill="#444444"/>
</svg>
