<svg width="79" height="54" viewBox="0 0 79 54" fill="none" xmlns="http://www.w3.org/2000/svg">
<path d="M8.67188 43.375V44.9297H2.63281V43.375H8.67188ZM3.11719 38.625V50H1.15625V38.625H3.11719ZM10.1797 38.625V50H8.22656V38.625H10.1797ZM17.8941 48.0078V41.5469H19.7847V50H18.0034L17.8941 48.0078ZM18.1597 46.25L18.7925 46.2344C18.7925 46.8021 18.73 47.3255 18.605 47.8047C18.48 48.2786 18.2873 48.6927 18.0269 49.0469C17.7665 49.3958 17.4331 49.6693 17.0269 49.8672C16.6206 50.0599 16.1336 50.1562 15.5659 50.1562C15.1545 50.1562 14.7769 50.0964 14.4331 49.9766C14.0894 49.8568 13.7925 49.6719 13.5425 49.4219C13.2977 49.1719 13.1076 48.8464 12.9722 48.4453C12.8368 48.0443 12.7691 47.5651 12.7691 47.0078V41.5469H14.6519V47.0234C14.6519 47.3307 14.6883 47.5885 14.7612 47.7969C14.8342 48 14.9331 48.1641 15.0581 48.2891C15.1831 48.4141 15.329 48.5026 15.4956 48.5547C15.6623 48.6068 15.8394 48.6328 16.0269 48.6328C16.5633 48.6328 16.9852 48.5286 17.2925 48.3203C17.605 48.1068 17.8264 47.8203 17.9566 47.4609C18.092 47.1016 18.1597 46.6979 18.1597 46.25ZM24.0772 43.2656V50H22.1944V41.5469H23.9678L24.0772 43.2656ZM23.7725 45.4609L23.1319 45.4531C23.1319 44.8698 23.2048 44.3307 23.3506 43.8359C23.4965 43.3411 23.71 42.9115 23.9912 42.5469C24.2725 42.1771 24.6215 41.8932 25.0381 41.6953C25.46 41.4922 25.947 41.3906 26.4991 41.3906C26.8845 41.3906 27.236 41.4479 27.5537 41.5625C27.8767 41.6719 28.1553 41.8464 28.3897 42.0859C28.6293 42.3255 28.8116 42.6328 28.9366 43.0078C29.0668 43.3828 29.1319 43.8359 29.1319 44.3672V50H27.2491V44.5312C27.2491 44.1198 27.1866 43.7969 27.0616 43.5625C26.9418 43.3281 26.7673 43.1615 26.5381 43.0625C26.3142 42.9583 26.0459 42.9062 25.7334 42.9062C25.3793 42.9062 25.0772 42.974 24.8272 43.1094C24.5824 43.2448 24.3819 43.4297 24.2256 43.6641C24.0694 43.8984 23.9548 44.1693 23.8819 44.4766C23.809 44.7839 23.7725 45.112 23.7725 45.4609ZM29.0147 44.9609L28.1319 45.1562C28.1319 44.6458 28.2022 44.1641 28.3428 43.7109C28.4886 43.2526 28.6996 42.8516 28.9756 42.5078C29.2569 42.1589 29.6032 41.8854 30.0147 41.6875C30.4261 41.4896 30.8975 41.3906 31.4287 41.3906C31.861 41.3906 32.2465 41.4505 32.585 41.5703C32.9287 41.6849 33.2204 41.8672 33.46 42.1172C33.6996 42.3672 33.8819 42.6927 34.0069 43.0938C34.1319 43.4896 34.1944 43.9688 34.1944 44.5312V50H32.3037V44.5234C32.3037 44.0964 32.2412 43.7656 32.1162 43.5312C31.9965 43.2969 31.8246 43.1354 31.6006 43.0469C31.3767 42.9531 31.1084 42.9062 30.7959 42.9062C30.5043 42.9062 30.2465 42.9609 30.0225 43.0703C29.8037 43.1745 29.6189 43.3229 29.4678 43.5156C29.3168 43.7031 29.2022 43.9193 29.1241 44.1641C29.0511 44.4089 29.0147 44.6745 29.0147 44.9609ZM38.6275 41.5469V50H36.7369V41.5469H38.6275ZM36.6119 39.3281C36.6119 39.0417 36.7056 38.8047 36.8931 38.6172C37.0858 38.4245 37.3515 38.3281 37.69 38.3281C38.0233 38.3281 38.2864 38.4245 38.4791 38.6172C38.6718 38.8047 38.7681 39.0417 38.7681 39.3281C38.7681 39.6094 38.6718 39.8438 38.4791 40.0312C38.2864 40.2188 38.0233 40.3125 37.69 40.3125C37.3515 40.3125 37.0858 40.2188 36.8931 40.0312C36.7056 39.8438 36.6119 39.6094 36.6119 39.3281ZM46.3262 48.25V38H48.2169V50H46.5059L46.3262 48.25ZM40.8262 45.8672V45.7031C40.8262 45.0625 40.9018 44.4792 41.0528 43.9531C41.2039 43.4219 41.4226 42.9661 41.7091 42.5859C41.9955 42.2005 42.3445 41.9062 42.7559 41.7031C43.1674 41.4948 43.6309 41.3906 44.1466 41.3906C44.657 41.3906 45.1049 41.4896 45.4903 41.6875C45.8757 41.8854 46.2039 42.1693 46.4747 42.5391C46.7455 42.9036 46.9617 43.3411 47.1231 43.8516C47.2846 44.3568 47.3992 44.9193 47.4669 45.5391V46.0625C47.3992 46.6667 47.2846 47.2188 47.1231 47.7188C46.9617 48.2188 46.7455 48.651 46.4747 49.0156C46.2039 49.3802 45.8731 49.6615 45.4825 49.8594C45.0971 50.0573 44.6466 50.1562 44.1309 50.1562C43.6205 50.1562 43.1596 50.0495 42.7481 49.8359C42.3419 49.6224 41.9955 49.3229 41.7091 48.9375C41.4226 48.5521 41.2039 48.099 41.0528 47.5781C40.9018 47.0521 40.8262 46.4818 40.8262 45.8672ZM42.7091 45.7031V45.8672C42.7091 46.2526 42.7429 46.612 42.8106 46.9453C42.8835 47.2786 42.9955 47.5729 43.1466 47.8281C43.2976 48.0781 43.4929 48.276 43.7325 48.4219C43.9773 48.5625 44.269 48.6328 44.6075 48.6328C45.0346 48.6328 45.3861 48.5391 45.6622 48.3516C45.9382 48.1641 46.1544 47.9115 46.3106 47.5938C46.4721 47.2708 46.5815 46.9115 46.6387 46.5156V45.1016C46.6075 44.7943 46.5424 44.5078 46.4434 44.2422C46.3497 43.9766 46.2221 43.7448 46.0606 43.5469C45.8992 43.3438 45.6986 43.1875 45.4591 43.0781C45.2247 42.9635 44.946 42.9062 44.6231 42.9062C44.2794 42.9062 43.9877 42.9792 43.7481 43.125C43.5085 43.2708 43.3106 43.4714 43.1544 43.7266C43.0033 43.9818 42.8914 44.2786 42.8184 44.6172C42.7455 44.9557 42.7091 45.3177 42.7091 45.7031ZM52.6813 41.5469V50H50.7906V41.5469H52.6813ZM50.6656 39.3281C50.6656 39.0417 50.7594 38.8047 50.9469 38.6172C51.1396 38.4245 51.4052 38.3281 51.7438 38.3281C52.0771 38.3281 52.3401 38.4245 52.5328 38.6172C52.7255 38.8047 52.8219 39.0417 52.8219 39.3281C52.8219 39.6094 52.7255 39.8438 52.5328 40.0312C52.3401 40.2188 52.0771 40.3125 51.7438 40.3125C51.4052 40.3125 51.1396 40.2188 50.9469 40.0312C50.7594 39.8438 50.6656 39.6094 50.6656 39.3281ZM57.6456 50H55.755V41C55.755 40.3177 55.8904 39.7422 56.1613 39.2734C56.4373 38.8047 56.8305 38.4479 57.3409 38.2031C57.8566 37.9583 58.4685 37.8359 59.1769 37.8359C59.5935 37.8359 59.9946 37.8802 60.38 37.9688C60.7706 38.0573 61.1743 38.1693 61.5909 38.3047L61.3019 39.8359C61.0363 39.7474 60.742 39.6641 60.4191 39.5859C60.0961 39.5026 59.7238 39.4609 59.3019 39.4609C58.7342 39.4609 58.3149 39.5911 58.0441 39.8516C57.7784 40.1068 57.6456 40.4896 57.6456 41V50ZM59.3409 41.5469V42.9219H54.4581V41.5469H59.3409ZM62.4816 41.5469V50H60.5988V41.5469H62.4816ZM68.7897 50.1562C68.1647 50.1562 67.5996 50.0547 67.0944 49.8516C66.5944 49.6432 66.1673 49.3542 65.8131 48.9844C65.4642 48.6146 65.1959 48.1797 65.0084 47.6797C64.8209 47.1797 64.7272 46.6406 64.7272 46.0625V45.75C64.7272 45.0885 64.8235 44.4896 65.0163 43.9531C65.209 43.4167 65.4772 42.9583 65.8209 42.5781C66.1647 42.1927 66.5709 41.8984 67.0397 41.6953C67.5084 41.4922 68.0163 41.3906 68.5631 41.3906C69.1673 41.3906 69.6959 41.4922 70.1491 41.6953C70.6022 41.8984 70.9772 42.1849 71.2741 42.5547C71.5761 42.9193 71.8001 43.3542 71.9459 43.8594C72.097 44.3646 72.1725 44.9219 72.1725 45.5312V46.3359H65.6413V44.9844H70.3131V44.8359C70.3027 44.4974 70.235 44.1797 70.11 43.8828C69.9902 43.5859 69.8053 43.3464 69.5553 43.1641C69.3053 42.9818 68.972 42.8906 68.5553 42.8906C68.2428 42.8906 67.9642 42.9583 67.7194 43.0938C67.4798 43.224 67.2793 43.4141 67.1178 43.6641C66.9564 43.9141 66.8314 44.2161 66.7428 44.5703C66.6595 44.9193 66.6178 45.3125 66.6178 45.75V46.0625C66.6178 46.4323 66.6673 46.776 66.7663 47.0938C66.8704 47.4062 67.0215 47.6797 67.2194 47.9141C67.4173 48.1484 67.6569 48.3333 67.9381 48.4688C68.2194 48.599 68.5397 48.6641 68.8991 48.6641C69.3522 48.6641 69.7558 48.5729 70.11 48.3906C70.4642 48.2083 70.7715 47.9505 71.0319 47.6172L72.0241 48.5781C71.8418 48.8438 71.6048 49.099 71.3131 49.3438C71.0215 49.5833 70.6647 49.7786 70.2428 49.9297C69.8261 50.0807 69.3418 50.1562 68.7897 50.1562ZM76.0119 43.1562V50H74.1291V41.5469H75.9259L76.0119 43.1562ZM78.5978 41.4922L78.5822 43.2422C78.4676 43.2214 78.3426 43.2057 78.2072 43.1953C78.077 43.1849 77.9468 43.1797 77.8166 43.1797C77.4936 43.1797 77.2098 43.2266 76.965 43.3203C76.7202 43.4089 76.5145 43.5391 76.3478 43.7109C76.1864 43.8776 76.0614 44.0807 75.9728 44.3203C75.8843 44.5599 75.8322 44.8281 75.8166 45.125L75.3869 45.1562C75.3869 44.625 75.439 44.1328 75.5431 43.6797C75.6473 43.2266 75.8035 42.8281 76.0119 42.4844C76.2254 42.1406 76.491 41.8724 76.8087 41.6797C77.1317 41.487 77.5041 41.3906 77.9259 41.3906C78.0405 41.3906 78.1629 41.401 78.2931 41.4219C78.4285 41.4427 78.5301 41.4661 78.5978 41.4922Z" fill="#63676A"/>
<path d="M38.1111 6.94444C35.0417 6.94444 32.5556 9.43056 32.5556 12.5C32.5556 15.5694 35.0417 18.0556 38.1111 18.0556C41.1806 18.0556 43.6667 15.5694 43.6667 12.5C43.6667 9.43056 41.1806 6.94444 38.1111 6.94444ZM38.1111 15.2778C36.5833 15.2778 35.3333 14.0417 35.3333 12.5C35.3333 10.9583 36.5833 9.72222 38.1111 9.72222C39.6389 9.72222 40.8889 10.9722 40.8889 12.5C40.8889 14.0278 39.6528 15.2778 38.1111 15.2778ZM32.5556 0H42.2778C45.3472 0 47.8333 2.48611 47.8333 5.55556V6.94444H45.0556V5.55556C45.0556 4.81884 44.7629 4.1123 44.242 3.59137C43.721 3.07044 43.0145 2.77778 42.2778 2.77778H32.5556C31.0278 2.77778 29.7778 4.02778 29.7778 5.55556V22.2222H45.0556V19.4444H47.8333V25H27V5.55556C27 2.48611 29.4861 0 32.5556 0ZM49.2222 9.02778C49.2222 9.02778 52 12.0417 52 13.8889C52 15.4167 50.75 16.6667 49.2222 16.6667C47.6944 16.6667 46.4444 15.4167 46.4444 13.8889C46.4444 12.0417 49.2222 9.02778 49.2222 9.02778Z" fill="#C2DD54"/>
</svg>
