<svg width="133" height="47" viewBox="0 0 133 47" fill="none" xmlns="http://www.w3.org/2000/svg">
<rect width="133" height="47" rx="10" fill="#E7E7E7"/>
<path d="M32.364 30.126C31.536 30.126 30.792 29.982 30.132 29.694C29.484 29.394 28.974 28.986 28.602 28.47C28.23 27.942 28.038 27.336 28.026 26.652H29.772C29.832 27.24 30.072 27.738 30.492 28.146C30.924 28.542 31.548 28.74 32.364 28.74C33.144 28.74 33.756 28.548 34.2 28.164C34.656 27.768 34.884 27.264 34.884 26.652C34.884 26.172 34.752 25.782 34.488 25.482C34.224 25.182 33.894 24.954 33.498 24.798C33.102 24.642 32.568 24.474 31.896 24.294C31.068 24.078 30.402 23.862 29.898 23.646C29.406 23.43 28.98 23.094 28.62 22.638C28.272 22.17 28.098 21.546 28.098 20.766C28.098 20.082 28.272 19.476 28.62 18.948C28.968 18.42 29.454 18.012 30.078 17.724C30.714 17.436 31.44 17.292 32.256 17.292C33.432 17.292 34.392 17.586 35.136 18.174C35.892 18.762 36.318 19.542 36.414 20.514H34.614C34.554 20.034 34.302 19.614 33.858 19.254C33.414 18.882 32.826 18.696 32.094 18.696C31.41 18.696 30.852 18.876 30.42 19.236C29.988 19.584 29.772 20.076 29.772 20.712C29.772 21.168 29.898 21.54 30.15 21.828C30.414 22.116 30.732 22.338 31.104 22.494C31.488 22.638 32.022 22.806 32.706 22.998C33.534 23.226 34.2 23.454 34.704 23.682C35.208 23.898 35.64 24.24 36 24.708C36.36 25.164 36.54 25.788 36.54 26.58C36.54 27.192 36.378 27.768 36.054 28.308C35.73 28.848 35.25 29.286 34.614 29.622C33.978 29.958 33.228 30.126 32.364 30.126ZM39.7965 18.534C39.4845 18.534 39.2205 18.426 39.0045 18.21C38.7885 17.994 38.6805 17.73 38.6805 17.418C38.6805 17.106 38.7885 16.842 39.0045 16.626C39.2205 16.41 39.4845 16.302 39.7965 16.302C40.0965 16.302 40.3485 16.41 40.5525 16.626C40.7685 16.842 40.8765 17.106 40.8765 17.418C40.8765 17.73 40.7685 17.994 40.5525 18.21C40.3485 18.426 40.0965 18.534 39.7965 18.534ZM40.5885 20.136V30H38.9505V20.136H40.5885ZM47.4481 19.974C48.3001 19.974 49.0441 20.16 49.6801 20.532C50.3281 20.904 50.8081 21.372 51.1201 21.936V20.136H52.7761V30.216C52.7761 31.116 52.5841 31.914 52.2001 32.61C51.8161 33.318 51.2641 33.87 50.5441 34.266C49.8361 34.662 49.0081 34.86 48.0601 34.86C46.7641 34.86 45.6841 34.554 44.8201 33.942C43.9561 33.33 43.4461 32.496 43.2901 31.44H44.9101C45.0901 32.04 45.4621 32.52 46.0261 32.88C46.5901 33.252 47.2681 33.438 48.0601 33.438C48.9601 33.438 49.6921 33.156 50.2561 32.592C50.8321 32.028 51.1201 31.236 51.1201 30.216V28.146C50.7961 28.722 50.3161 29.202 49.6801 29.586C49.0441 29.97 48.3001 30.162 47.4481 30.162C46.5721 30.162 45.7741 29.946 45.0541 29.514C44.3461 29.082 43.7881 28.476 43.3801 27.696C42.9721 26.916 42.7681 26.028 42.7681 25.032C42.7681 24.024 42.9721 23.142 43.3801 22.386C43.7881 21.618 44.3461 21.024 45.0541 20.604C45.7741 20.184 46.5721 19.974 47.4481 19.974ZM51.1201 25.05C51.1201 24.306 50.9701 23.658 50.6701 23.106C50.3701 22.554 49.9621 22.134 49.4461 21.846C48.9421 21.546 48.3841 21.396 47.7721 21.396C47.1601 21.396 46.6021 21.54 46.0981 21.828C45.5941 22.116 45.1921 22.536 44.8921 23.088C44.5921 23.64 44.4421 24.288 44.4421 25.032C44.4421 25.788 44.5921 26.448 44.8921 27.012C45.1921 27.564 45.5941 27.99 46.0981 28.29C46.6021 28.578 47.1601 28.722 47.7721 28.722C48.3841 28.722 48.9421 28.578 49.4461 28.29C49.9621 27.99 50.3701 27.564 50.6701 27.012C50.9701 26.448 51.1201 25.794 51.1201 25.05ZM60.3502 19.956C61.5502 19.956 62.5222 20.322 63.2662 21.054C64.0102 21.774 64.3822 22.818 64.3822 24.186V30H62.7622V24.42C62.7622 23.436 62.5162 22.686 62.0242 22.17C61.5322 21.642 60.8602 21.378 60.0082 21.378C59.1442 21.378 58.4542 21.648 57.9382 22.188C57.4342 22.728 57.1822 23.514 57.1822 24.546V30H55.5442V20.136H57.1822V21.54C57.5062 21.036 57.9442 20.646 58.4962 20.37C59.0602 20.094 59.6782 19.956 60.3502 19.956ZM77.5447 30.126C76.3807 30.126 75.3187 29.856 74.3587 29.316C73.3987 28.764 72.6367 28.002 72.0727 27.03C71.5207 26.046 71.2447 24.942 71.2447 23.718C71.2447 22.494 71.5207 21.396 72.0727 20.424C72.6367 19.44 73.3987 18.678 74.3587 18.138C75.3187 17.586 76.3807 17.31 77.5447 17.31C78.7207 17.31 79.7887 17.586 80.7487 18.138C81.7087 18.678 82.4647 19.434 83.0167 20.406C83.5687 21.378 83.8447 22.482 83.8447 23.718C83.8447 24.954 83.5687 26.058 83.0167 27.03C82.4647 28.002 81.7087 28.764 80.7487 29.316C79.7887 29.856 78.7207 30.126 77.5447 30.126ZM77.5447 28.704C78.4207 28.704 79.2067 28.5 79.9027 28.092C80.6107 27.684 81.1627 27.102 81.5587 26.346C81.9667 25.59 82.1707 24.714 82.1707 23.718C82.1707 22.71 81.9667 21.834 81.5587 21.09C81.1627 20.334 80.6167 19.752 79.9207 19.344C79.2247 18.936 78.4327 18.732 77.5447 18.732C76.6567 18.732 75.8647 18.936 75.1687 19.344C74.4727 19.752 73.9207 20.334 73.5127 21.09C73.1167 21.834 72.9187 22.71 72.9187 23.718C72.9187 24.714 73.1167 25.59 73.5127 26.346C73.9207 27.102 74.4727 27.684 75.1687 28.092C75.8767 28.5 76.6687 28.704 77.5447 28.704ZM94.7551 20.136V30H93.1171V28.542C92.8051 29.046 92.3671 29.442 91.8031 29.73C91.2511 30.006 90.6391 30.144 89.9671 30.144C89.1991 30.144 88.5091 29.988 87.8971 29.676C87.2851 29.352 86.7991 28.872 86.4391 28.236C86.0911 27.6 85.9171 26.826 85.9171 25.914V20.136H87.5371V25.698C87.5371 26.67 87.7831 27.42 88.2751 27.948C88.7671 28.464 89.4391 28.722 90.2911 28.722C91.1671 28.722 91.8571 28.452 92.3611 27.912C92.8651 27.372 93.1171 26.586 93.1171 25.554V20.136H94.7551ZM99.5188 21.486V27.3C99.5188 27.78 99.6208 28.122 99.8248 28.326C100.029 28.518 100.383 28.614 100.887 28.614H102.093V30H100.617C99.7048 30 99.0208 29.79 98.5648 29.37C98.1088 28.95 97.8808 28.26 97.8808 27.3V21.486H96.6028V20.136H97.8808V17.652H99.5188V20.136H102.093V21.486H99.5188Z" fill="#BA2F2F"/>
</svg>
