<svg width="27" height="29" viewBox="0 0 27 29" fill="none" xmlns="http://www.w3.org/2000/svg">
<path d="M13.5201 14.5C17.276 14.5 20.3208 11.4779 20.3208 7.75C20.3208 4.02208 17.276 1 13.5201 1C9.76421 1 6.71945 4.02208 6.71945 7.75C6.71945 11.4779 9.76421 14.5 13.5201 14.5Z" stroke="#444444" stroke-width="1.836"/>
<path d="M20.3207 17.2H20.7994C21.7938 17.2003 22.7539 17.561 23.4992 18.2142C24.2446 18.8675 24.7239 19.7685 24.8472 20.7478L25.379 24.9652C25.4269 25.3451 25.3927 25.7308 25.2789 26.0967C25.1651 26.4625 24.9742 26.8001 24.7188 27.0871C24.4635 27.3741 24.1496 27.604 23.7979 27.7614C23.4463 27.9187 23.0649 28.0001 22.6792 28H4.36087C3.97512 28.0001 3.59375 27.9187 3.24209 27.7614C2.89043 27.604 2.57652 27.3741 2.32118 27.0871C2.06585 26.8001 1.87494 26.4625 1.76112 26.0967C1.6473 25.7308 1.61318 25.3451 1.66101 24.9652L2.19146 20.7478C2.31482 19.768 2.79457 18.8667 3.54049 18.2133C4.2864 17.56 5.24711 17.1996 6.24194 17.2H6.71935" stroke="#444444" stroke-width="1.836" stroke-linecap="round" stroke-linejoin="round"/>
</svg>
