<svg width="36" height="10" viewBox="0 0 36 10" fill="none" xmlns="http://www.w3.org/2000/svg">
<path d="M5.232 9L3.312 5.664H2.268V9H0.9V0.659999H3.78C4.42 0.659999 4.96 0.771999 5.4 0.995999C5.848 1.22 6.18 1.52 6.396 1.896C6.62 2.272 6.732 2.692 6.732 3.156C6.732 3.7 6.572 4.196 6.252 4.644C5.94 5.084 5.456 5.384 4.8 5.544L6.864 9H5.232ZM2.268 4.572H3.78C4.292 4.572 4.676 4.444 4.932 4.188C5.196 3.932 5.328 3.588 5.328 3.156C5.328 2.724 5.2 2.388 4.944 2.148C4.688 1.9 4.3 1.776 3.78 1.776H2.268V4.572ZM10.21 1.764V4.212H13.09V5.328H10.21V7.884H13.45V9H8.84203V0.648H13.45V1.764H10.21ZM18.243 9.084C17.683 9.084 17.179 8.988 16.731 8.796C16.283 8.596 15.931 8.316 15.675 7.956C15.419 7.596 15.291 7.176 15.291 6.696H16.755C16.787 7.056 16.927 7.352 17.175 7.584C17.431 7.816 17.787 7.932 18.243 7.932C18.715 7.932 19.083 7.82 19.347 7.596C19.611 7.364 19.743 7.068 19.743 6.708C19.743 6.428 19.659 6.2 19.491 6.024C19.331 5.848 19.127 5.712 18.879 5.616C18.639 5.52 18.303 5.416 17.871 5.304C17.327 5.16 16.883 5.016 16.539 4.872C16.203 4.72 15.915 4.488 15.675 4.176C15.435 3.864 15.315 3.448 15.315 2.928C15.315 2.448 15.435 2.028 15.675 1.668C15.915 1.308 16.251 1.032 16.683 0.84C17.115 0.648 17.615 0.551999 18.183 0.551999C18.991 0.551999 19.651 0.755999 20.163 1.164C20.683 1.564 20.971 2.116 21.027 2.82H19.515C19.491 2.516 19.347 2.256 19.083 2.04C18.819 1.824 18.471 1.716 18.039 1.716C17.647 1.716 17.327 1.816 17.079 2.016C16.831 2.216 16.707 2.504 16.707 2.88C16.707 3.136 16.783 3.348 16.935 3.516C17.095 3.676 17.295 3.804 17.535 3.9C17.775 3.996 18.103 4.1 18.519 4.212C19.071 4.364 19.519 4.516 19.863 4.668C20.215 4.82 20.511 5.056 20.751 5.376C20.999 5.688 21.123 6.108 21.123 6.636C21.123 7.06 21.007 7.46 20.775 7.836C20.551 8.212 20.219 8.516 19.779 8.748C19.347 8.972 18.835 9.084 18.243 9.084ZM24.4652 1.764V4.212H27.3452V5.328H24.4652V7.884H27.7052V9H23.0972V0.648H27.7052V1.764H24.4652ZM35.1382 0.659999V1.776H32.9182V9H31.5502V1.776H29.3182V0.659999H35.1382Z" fill="white"/>
</svg>
