<svg width="31" height="10" viewBox="0 0 31 10" fill="none" xmlns="http://www.w3.org/2000/svg">
<path d="M3.648 9.084C3.088 9.084 2.584 8.988 2.136 8.796C1.688 8.596 1.336 8.316 1.08 7.956C0.824 7.596 0.696 7.176 0.696 6.696H2.16C2.192 7.056 2.332 7.352 2.58 7.584C2.836 7.816 3.192 7.932 3.648 7.932C4.12 7.932 4.488 7.82 4.752 7.596C5.016 7.364 5.148 7.068 5.148 6.708C5.148 6.428 5.064 6.2 4.896 6.024C4.736 5.848 4.532 5.712 4.284 5.616C4.044 5.52 3.708 5.416 3.276 5.304C2.732 5.16 2.288 5.016 1.944 4.872C1.608 4.72 1.32 4.488 1.08 4.176C0.84 3.864 0.72 3.448 0.72 2.928C0.72 2.448 0.84 2.028 1.08 1.668C1.32 1.308 1.656 1.032 2.088 0.84C2.52 0.648 3.02 0.551999 3.588 0.551999C4.396 0.551999 5.056 0.755999 5.568 1.164C6.088 1.564 6.376 2.116 6.432 2.82H4.92C4.896 2.516 4.752 2.256 4.488 2.04C4.224 1.824 3.876 1.716 3.444 1.716C3.052 1.716 2.732 1.816 2.484 2.016C2.236 2.216 2.112 2.504 2.112 2.88C2.112 3.136 2.188 3.348 2.34 3.516C2.5 3.676 2.7 3.804 2.94 3.9C3.18 3.996 3.508 4.1 3.924 4.212C4.476 4.364 4.924 4.516 5.268 4.668C5.62 4.82 5.916 5.056 6.156 5.376C6.404 5.688 6.528 6.108 6.528 6.636C6.528 7.06 6.412 7.46 6.18 7.836C5.956 8.212 5.624 8.516 5.184 8.748C4.752 8.972 4.24 9.084 3.648 9.084ZM13.5302 7.296H10.0382L9.43819 9H8.01019L10.9982 0.648H12.5822L15.5702 9H14.1302L13.5302 7.296ZM13.1462 6.18L11.7902 2.304L10.4222 6.18H13.1462ZM24.4174 0.659999L21.2854 9H19.7014L16.5574 0.659999H18.0214L20.4934 7.596L22.9774 0.659999H24.4174ZM27.2894 1.764V4.212H30.1694V5.328H27.2894V7.884H30.5294V9H25.9214V0.648H30.5294V1.764H27.2894Z" fill="white"/>
</svg>
