<svg width="319" height="222" viewBox="0 0 319 222" fill="none" xmlns="http://www.w3.org/2000/svg">
<path fill-rule="evenodd" clip-rule="evenodd" d="M164.775 178.988L164.775 72.2974V71.226L165.804 70.9257L239.775 49.3304V-7.00002C239.775 -7.78923 240.415 -8.42902 241.204 -8.42902C241.993 -8.42902 242.633 -7.78923 242.633 -7.00002V50.4019V51.4734L241.605 51.7736L167.633 73.3689V179.188C173.623 180.28 178.163 185.503 178.163 191.782C178.163 198.853 172.405 204.585 165.302 204.585C158.199 204.585 152.441 198.853 152.441 191.782C152.441 184.886 157.916 179.263 164.775 178.988ZM221.633 87.9385V184.683C227.801 185.768 232.464 190.786 232.464 196.812C232.464 203.63 226.493 209.158 219.127 209.158C211.761 209.158 205.79 203.63 205.79 196.812C205.79 190.102 211.572 184.642 218.775 184.469L218.775 86.8277V85.7168L219.852 85.4428L267.775 73.246V-7.00002C267.775 -7.78923 268.415 -8.42902 269.204 -8.42902C269.993 -8.42902 270.633 -7.78923 270.633 -7.00002V74.3569V75.4678L269.557 75.7418L221.633 87.9385ZM131.482 184.922C131.482 178.482 126.155 173.193 119.357 172.626L119.357 137.113H140.204H141.633V135.684V80.2108V78.7818H140.204H103.633L103.633 -5.00003C103.633 -5.78925 102.993 -6.42903 102.204 -6.42903C101.415 -6.42903 100.775 -5.78925 100.775 -5.00003L100.775 80.2108V81.6398H102.204H138.775L138.775 134.255H117.928H116.499V135.684V172.669C109.91 173.419 104.807 178.619 104.807 184.922C104.807 191.741 110.779 197.269 118.145 197.269C125.511 197.269 131.482 191.741 131.482 184.922ZM14.6332 179.002C21.3611 179.416 26.6891 184.979 26.6891 191.782C26.6891 198.853 20.931 204.585 13.8281 204.585C6.72521 204.585 0.967163 198.853 0.967163 191.782C0.967163 185.406 5.64808 180.118 11.7752 179.14L11.7752 106.164V104.735H13.2042H51.7752L51.7752 -1.00003C51.7752 -1.78925 52.415 -2.42903 53.2042 -2.42903C53.9935 -2.42903 54.6332 -1.78925 54.6332 -1.00003L54.6332 106.164V107.593H53.2042H14.6332L14.6332 179.002ZM305.775 197.276C305.632 197.271 305.488 197.269 305.343 197.269C298.24 197.269 292.482 202.797 292.482 209.615C292.482 216.434 298.24 221.962 305.343 221.962C312.446 221.962 318.204 216.434 318.204 209.615C318.204 203.888 314.142 199.072 308.633 197.677V160.563V159.134H307.204H262.633V105.537L307.204 105.537H308.633V104.108V-7.00002C308.633 -7.78923 307.993 -8.42902 307.204 -8.42902C306.415 -8.42902 305.775 -7.78923 305.775 -7.00002V102.679L261.204 102.679H259.775V104.108V160.563V161.992H261.204L305.775 161.992V197.276Z" fill="#EBFACA" fill-opacity="0.6"/>
</svg>
