<svg width="78" height="78" viewBox="0 0 78 78" fill="none" xmlns="http://www.w3.org/2000/svg">
<g filter="url(#filter0_d_74_7)">
<circle cx="39" cy="37" r="30" fill="white"/>
<circle cx="39" cy="37" r="29.75" stroke="#E5F0B9" stroke-width="0.5"/>
</g>
<path d="M53.1417 24.4904L50.4221 25.6749C48.8458 26.3615 47.0825 25.2062 47.0825 23.4868C47.0825 23.0925 46.8799 22.7143 46.5191 22.4355C46.1584 22.1566 45.6691 22 45.159 22H27.8471C26.8268 22 25.8483 22.3133 25.1268 22.8709C24.4053 23.4286 24 24.1849 24 24.9736V36.868C24 37.6566 24.4053 38.413 25.1268 38.9706C25.8483 39.5283 26.8268 39.8416 27.8471 39.8416H45.159C45.6691 39.8416 46.1584 39.6849 46.5191 39.4061C46.8799 39.1273 47.0825 38.7491 47.0825 38.3548C47.0825 36.6283 48.8529 35.4684 50.4358 36.1578L53.1417 37.3363C53.2971 37.4148 53.4766 37.4603 53.662 37.4682C53.8474 37.4762 54.0322 37.4462 54.1979 37.3814C54.3636 37.3166 54.5043 37.2193 54.6059 37.0991C54.7075 36.979 54.7664 36.8403 54.7767 36.697V25.1223C54.7648 24.9796 54.7048 24.8418 54.6026 24.7227C54.5003 24.6035 54.3595 24.5072 54.194 24.4433C54.0286 24.3793 53.8444 24.35 53.6597 24.3583C53.4751 24.3666 53.2964 24.4121 53.1417 24.4904Z" fill="#C2DD54"/>
<path d="M32.2076 32.4376H33.4051V32.9064H31.6266V29.3648H32.2076V32.4376ZM34.4413 29.7266C34.336 29.7266 34.2477 29.6909 34.1763 29.6196C34.105 29.5482 34.0693 29.4599 34.0693 29.3546C34.0693 29.2493 34.105 29.1609 34.1763 29.0896C34.2477 29.0182 34.336 28.9826 34.4413 28.9826C34.5432 28.9826 34.6298 29.0182 34.7012 29.0896C34.7725 29.1609 34.8082 29.2493 34.8082 29.3546C34.8082 29.4599 34.7725 29.5482 34.7012 29.6196C34.6298 29.6909 34.5432 29.7266 34.4413 29.7266ZM34.7267 30.0986V32.9064H34.1457V30.0986H34.7267ZM36.8296 32.3866L37.6246 30.0986H38.2412L37.171 32.9064H36.478L35.4129 30.0986H36.0347L36.8296 32.3866ZM41.5085 31.4337C41.5085 31.539 41.5018 31.6342 41.4882 31.7191H39.3428C39.3598 31.9433 39.443 32.1234 39.5925 32.2593C39.742 32.3951 39.9254 32.4631 40.1428 32.4631C40.4554 32.4631 40.6762 32.3323 40.8053 32.0707H41.4321C41.3472 32.3289 41.1926 32.5412 40.9684 32.7077C40.7476 32.8708 40.4724 32.9523 40.1428 32.9523C39.8745 32.9523 39.6332 32.8928 39.4192 32.7739C39.2086 32.6516 39.0421 32.4818 38.9198 32.2643C38.8009 32.0435 38.7415 31.7887 38.7415 31.5C38.7415 31.2112 38.7992 30.9581 38.9147 30.7407C39.0336 30.5198 39.1984 30.35 39.409 30.2311C39.6231 30.1122 39.8677 30.0527 40.1428 30.0527C40.4078 30.0527 40.6439 30.1105 40.8512 30.226C41.0584 30.3415 41.2198 30.5046 41.3353 30.7152C41.4508 30.9224 41.5085 31.1619 41.5085 31.4337ZM40.9021 31.2503C40.8987 31.0362 40.8223 30.8647 40.6728 30.7356C40.5233 30.6065 40.3382 30.5419 40.1174 30.5419C39.9169 30.5419 39.7454 30.6065 39.6027 30.7356C39.46 30.8613 39.3751 31.0328 39.3479 31.2503H40.9021Z" fill="white"/>
<path d="M25.468 47.03C25.36 46.822 25.21 46.666 25.018 46.562C24.826 46.454 24.604 46.4 24.352 46.4C24.076 46.4 23.83 46.462 23.614 46.586C23.398 46.71 23.228 46.886 23.104 47.114C22.984 47.342 22.924 47.606 22.924 47.906C22.924 48.206 22.984 48.472 23.104 48.704C23.228 48.932 23.398 49.108 23.614 49.232C23.83 49.356 24.076 49.418 24.352 49.418C24.724 49.418 25.026 49.314 25.258 49.106C25.49 48.898 25.632 48.616 25.684 48.26H24.118V47.714H26.416V48.248C26.372 48.572 26.256 48.87 26.068 49.142C25.884 49.414 25.642 49.632 25.342 49.796C25.046 49.956 24.716 50.036 24.352 50.036C23.96 50.036 23.602 49.946 23.278 49.766C22.954 49.582 22.696 49.328 22.504 49.004C22.316 48.68 22.222 48.314 22.222 47.906C22.222 47.498 22.316 47.132 22.504 46.808C22.696 46.484 22.954 46.232 23.278 46.052C23.606 45.868 23.964 45.776 24.352 45.776C24.796 45.776 25.19 45.886 25.534 46.106C25.882 46.322 26.134 46.63 26.29 47.03H25.468ZM27.8346 47.174C27.9346 47.006 28.0666 46.876 28.2306 46.784C28.3986 46.688 28.5966 46.64 28.8246 46.64V47.348H28.6506C28.3826 47.348 28.1786 47.416 28.0386 47.552C27.9026 47.688 27.8346 47.924 27.8346 48.26V50H27.1506V46.694H27.8346V47.174ZM32.5434 48.266C32.5434 48.39 32.5354 48.502 32.5194 48.602H29.9934C30.0134 48.866 30.1114 49.078 30.2874 49.238C30.4634 49.398 30.6794 49.478 30.9354 49.478C31.3034 49.478 31.5634 49.324 31.7154 49.016H32.4534C32.3534 49.32 32.1714 49.57 31.9074 49.766C31.6474 49.958 31.3234 50.054 30.9354 50.054C30.6194 50.054 30.3354 49.984 30.0834 49.844C29.8354 49.7 29.6394 49.5 29.4954 49.244C29.3554 48.984 29.2854 48.684 29.2854 48.344C29.2854 48.004 29.3534 47.706 29.4894 47.45C29.6294 47.19 29.8234 46.99 30.0714 46.85C30.3234 46.71 30.6114 46.64 30.9354 46.64C31.2474 46.64 31.5254 46.708 31.7694 46.844C32.0134 46.98 32.2034 47.172 32.3394 47.42C32.4754 47.664 32.5434 47.946 32.5434 48.266ZM31.8294 48.05C31.8254 47.798 31.7354 47.596 31.5594 47.444C31.3834 47.292 31.1654 47.216 30.9054 47.216C30.6694 47.216 30.4674 47.292 30.2994 47.444C30.1314 47.592 30.0314 47.794 29.9994 48.05H31.8294ZM36.3065 48.266C36.3065 48.39 36.2985 48.502 36.2825 48.602H33.7565C33.7765 48.866 33.8745 49.078 34.0505 49.238C34.2265 49.398 34.4425 49.478 34.6985 49.478C35.0665 49.478 35.3265 49.324 35.4785 49.016H36.2165C36.1165 49.32 35.9345 49.57 35.6705 49.766C35.4105 49.958 35.0865 50.054 34.6985 50.054C34.3825 50.054 34.0985 49.984 33.8465 49.844C33.5985 49.7 33.4025 49.5 33.2585 49.244C33.1185 48.984 33.0485 48.684 33.0485 48.344C33.0485 48.004 33.1165 47.706 33.2525 47.45C33.3925 47.19 33.5865 46.99 33.8345 46.85C34.0865 46.71 34.3745 46.64 34.6985 46.64C35.0105 46.64 35.2885 46.708 35.5325 46.844C35.7765 46.98 35.9665 47.172 36.1025 47.42C36.2385 47.664 36.3065 47.946 36.3065 48.266ZM35.5925 48.05C35.5885 47.798 35.4985 47.596 35.3225 47.444C35.1465 47.292 34.9285 47.216 34.6685 47.216C34.4325 47.216 34.2305 47.292 34.0625 47.444C33.8945 47.592 33.7945 47.794 33.7625 48.05H35.5925ZM38.7076 46.64C38.9676 46.64 39.1996 46.694 39.4036 46.802C39.6116 46.91 39.7736 47.07 39.8896 47.282C40.0056 47.494 40.0636 47.75 40.0636 48.05V50H39.3856V48.152C39.3856 47.856 39.3116 47.63 39.1636 47.474C39.0156 47.314 38.8136 47.234 38.5576 47.234C38.3016 47.234 38.0976 47.314 37.9456 47.474C37.7976 47.63 37.7236 47.856 37.7236 48.152V50H37.0396V46.694H37.7236V47.072C37.8356 46.936 37.9776 46.83 38.1496 46.754C38.3256 46.678 38.5116 46.64 38.7076 46.64ZM40.7681 47.906C40.7681 47.498 40.8621 47.132 41.0501 46.808C41.2421 46.484 41.5001 46.232 41.8241 46.052C42.1521 45.868 42.5101 45.776 42.8981 45.776C43.3421 45.776 43.7361 45.886 44.0801 46.106C44.4281 46.322 44.6801 46.63 44.8361 47.03H44.0141C43.9061 46.81 43.7561 46.646 43.5641 46.538C43.3721 46.43 43.1501 46.376 42.8981 46.376C42.6221 46.376 42.3761 46.438 42.1601 46.562C41.9441 46.686 41.7741 46.864 41.6501 47.096C41.5301 47.328 41.4701 47.598 41.4701 47.906C41.4701 48.214 41.5301 48.484 41.6501 48.716C41.7741 48.948 41.9441 49.128 42.1601 49.256C42.3761 49.38 42.6221 49.442 42.8981 49.442C43.1501 49.442 43.3721 49.388 43.5641 49.28C43.7561 49.172 43.9061 49.008 44.0141 48.788H44.8361C44.6801 49.188 44.4281 49.496 44.0801 49.712C43.7361 49.928 43.3421 50.036 42.8981 50.036C42.5061 50.036 42.1481 49.946 41.8241 49.766C41.5001 49.582 41.2421 49.328 41.0501 49.004C40.8621 48.68 40.7681 48.314 40.7681 47.906ZM45.4687 48.332C45.4687 48 45.5367 47.706 45.6727 47.45C45.8127 47.194 46.0007 46.996 46.2367 46.856C46.4767 46.712 46.7407 46.64 47.0287 46.64C47.2887 46.64 47.5147 46.692 47.7067 46.796C47.9027 46.896 48.0587 47.022 48.1747 47.174V46.694H48.8647V50H48.1747V49.508C48.0587 49.664 47.9007 49.794 47.7007 49.898C47.5007 50.002 47.2727 50.054 47.0167 50.054C46.7327 50.054 46.4727 49.982 46.2367 49.838C46.0007 49.69 45.8127 49.486 45.6727 49.226C45.5367 48.962 45.4687 48.664 45.4687 48.332ZM48.1747 48.344C48.1747 48.116 48.1267 47.918 48.0307 47.75C47.9387 47.582 47.8167 47.454 47.6647 47.366C47.5127 47.278 47.3487 47.234 47.1727 47.234C46.9967 47.234 46.8327 47.278 46.6807 47.366C46.5287 47.45 46.4047 47.576 46.3087 47.744C46.2167 47.908 46.1707 48.104 46.1707 48.332C46.1707 48.56 46.2167 48.76 46.3087 48.932C46.4047 49.104 46.5287 49.236 46.6807 49.328C46.8367 49.416 47.0007 49.46 47.1727 49.46C47.3487 49.46 47.5127 49.416 47.6647 49.328C47.8167 49.24 47.9387 49.112 48.0307 48.944C48.1267 48.772 48.1747 48.572 48.1747 48.344ZM53.8251 46.64C54.0851 46.64 54.3171 46.694 54.5211 46.802C54.7291 46.91 54.8911 47.07 55.0071 47.282C55.1271 47.494 55.1871 47.75 55.1871 48.05V50H54.5091V48.152C54.5091 47.856 54.4351 47.63 54.2871 47.474C54.1391 47.314 53.9371 47.234 53.6811 47.234C53.4251 47.234 53.2211 47.314 53.0691 47.474C52.9211 47.63 52.8471 47.856 52.8471 48.152V50H52.1691V48.152C52.1691 47.856 52.0951 47.63 51.9471 47.474C51.7991 47.314 51.5971 47.234 51.3411 47.234C51.0851 47.234 50.8811 47.314 50.7291 47.474C50.5811 47.63 50.5071 47.856 50.5071 48.152V50H49.8231V46.694H50.5071V47.072C50.6191 46.936 50.7611 46.83 50.9331 46.754C51.1051 46.678 51.2891 46.64 51.4851 46.64C51.7491 46.64 51.9851 46.696 52.1931 46.808C52.4011 46.92 52.5611 47.082 52.6731 47.294C52.7731 47.094 52.9291 46.936 53.1411 46.82C53.3531 46.7 53.5811 46.64 53.8251 46.64Z" fill="#63676A"/>
<defs>
<filter id="filter0_d_74_7" x="0" y="0" width="78" height="78" filterUnits="userSpaceOnUse" color-interpolation-filters="sRGB">
<feFlood flood-opacity="0" result="BackgroundImageFix"/>
<feColorMatrix in="SourceAlpha" type="matrix" values="0 0 0 0 0 0 0 0 0 0 0 0 0 0 0 0 0 0 127 0" result="hardAlpha"/>
<feMorphology radius="5" operator="dilate" in="SourceAlpha" result="effect1_dropShadow_74_7"/>
<feOffset dy="2"/>
<feGaussianBlur stdDeviation="2"/>
<feComposite in2="hardAlpha" operator="out"/>
<feColorMatrix type="matrix" values="0 0 0 0 0 0 0 0 0 0 0 0 0 0 0 0 0 0 0.02 0"/>
<feBlend mode="normal" in2="BackgroundImageFix" result="effect1_dropShadow_74_7"/>
<feBlend mode="normal" in="SourceGraphic" in2="effect1_dropShadow_74_7" result="shape"/>
</filter>
</defs>
</svg>
