<svg width="93" height="54" viewBox="0 0 93 54" fill="none" xmlns="http://www.w3.org/2000/svg">
<path d="M4.00781 47.4453L6.27344 38.625H7.46094L7.32812 40.8984L4.90625 50H3.67188L4.00781 47.4453ZM2.3125 38.625L4.14844 47.375L4.3125 50H3L0.367188 38.625H2.3125ZM10.0312 47.3516L11.8438 38.625H13.7969L11.1641 50H9.85156L10.0312 47.3516ZM7.92188 38.625L10.1641 47.4688L10.4922 50H9.25781L6.875 40.8984L6.75 38.625H7.92188ZM20.0425 48.3047V44.2734C20.0425 43.9714 19.9878 43.7109 19.8784 43.4922C19.7691 43.2734 19.6024 43.1042 19.3784 42.9844C19.1597 42.8646 18.8836 42.8047 18.5503 42.8047C18.243 42.8047 17.9774 42.8568 17.7534 42.9609C17.5295 43.0651 17.355 43.2057 17.23 43.3828C17.105 43.5599 17.0425 43.7604 17.0425 43.9844H15.1675C15.1675 43.651 15.2482 43.3281 15.4097 43.0156C15.5711 42.7031 15.8055 42.4245 16.1128 42.1797C16.4201 41.9349 16.7873 41.7422 17.2144 41.6016C17.6415 41.4609 18.1206 41.3906 18.6519 41.3906C19.2873 41.3906 19.8498 41.4974 20.3394 41.7109C20.8342 41.9245 21.2222 42.2474 21.5034 42.6797C21.7899 43.1068 21.9331 43.6432 21.9331 44.2891V48.0469C21.9331 48.4323 21.9592 48.7786 22.0112 49.0859C22.0685 49.388 22.1493 49.651 22.2534 49.875V50H20.3237C20.2352 49.7969 20.1649 49.5391 20.1128 49.2266C20.0659 48.9089 20.0425 48.6016 20.0425 48.3047ZM20.3159 44.8594L20.3316 46.0234H18.98C18.631 46.0234 18.3237 46.0573 18.0581 46.125C17.7925 46.1875 17.5711 46.2812 17.3941 46.4062C17.217 46.5312 17.0842 46.6823 16.9956 46.8594C16.9071 47.0365 16.8628 47.237 16.8628 47.4609C16.8628 47.6849 16.9149 47.8906 17.0191 48.0781C17.1232 48.2604 17.2743 48.4036 17.4722 48.5078C17.6753 48.612 17.9201 48.6641 18.2066 48.6641C18.592 48.6641 18.9279 48.5859 19.2144 48.4297C19.506 48.2682 19.7352 48.0729 19.9019 47.8438C20.0685 47.6094 20.1571 47.388 20.1675 47.1797L20.7769 48.0156C20.7144 48.2292 20.6076 48.4583 20.4566 48.7031C20.3055 48.9479 20.1076 49.1823 19.8628 49.4062C19.6232 49.625 19.3342 49.8047 18.9956 49.9453C18.6623 50.0859 18.2769 50.1562 17.8394 50.1562C17.2873 50.1562 16.7951 50.0469 16.3628 49.8281C15.9305 49.6042 15.592 49.3047 15.3472 48.9297C15.1024 48.5495 14.98 48.1198 14.98 47.6406C14.98 47.1927 15.0633 46.7969 15.23 46.4531C15.4019 46.1042 15.6519 45.8125 15.98 45.5781C16.3133 45.3438 16.7196 45.1667 17.1987 45.0469C17.6779 44.9219 18.2248 44.8594 18.8394 44.8594H20.3159ZM28.2569 41.5469V42.9219H23.4912V41.5469H28.2569ZM24.8662 39.4766H26.7491V47.6641C26.7491 47.9245 26.7855 48.125 26.8584 48.2656C26.9366 48.401 27.0433 48.4922 27.1787 48.5391C27.3142 48.5859 27.473 48.6094 27.6553 48.6094C27.7855 48.6094 27.9105 48.6016 28.0303 48.5859C28.1501 48.5703 28.2465 48.5547 28.3194 48.5391L28.3272 49.9766C28.1709 50.0234 27.9886 50.0651 27.7803 50.1016C27.5772 50.138 27.3428 50.1562 27.0772 50.1562C26.6449 50.1562 26.2621 50.0807 25.9287 49.9297C25.5954 49.7734 25.335 49.5208 25.1475 49.1719C24.96 48.8229 24.8662 48.3594 24.8662 47.7812V39.4766ZM33.9166 50.1562C33.2916 50.1562 32.7265 50.0547 32.2213 49.8516C31.7213 49.6432 31.2942 49.3542 30.94 48.9844C30.591 48.6146 30.3228 48.1797 30.1353 47.6797C29.9478 47.1797 29.8541 46.6406 29.8541 46.0625V45.75C29.8541 45.0885 29.9504 44.4896 30.1431 43.9531C30.3358 43.4167 30.6041 42.9583 30.9478 42.5781C31.2916 42.1927 31.6978 41.8984 32.1666 41.6953C32.6353 41.4922 33.1431 41.3906 33.69 41.3906C34.2942 41.3906 34.8228 41.4922 35.2759 41.6953C35.7291 41.8984 36.1041 42.1849 36.4009 42.5547C36.703 42.9193 36.927 43.3542 37.0728 43.8594C37.2239 44.3646 37.2994 44.9219 37.2994 45.5312V46.3359H30.7681V44.9844H35.44V44.8359C35.4296 44.4974 35.3619 44.1797 35.2369 43.8828C35.1171 43.5859 34.9322 43.3464 34.6822 43.1641C34.4322 42.9818 34.0989 42.8906 33.6822 42.8906C33.3697 42.8906 33.091 42.9583 32.8463 43.0938C32.6067 43.224 32.4061 43.4141 32.2447 43.6641C32.0832 43.9141 31.9582 44.2161 31.8697 44.5703C31.7864 44.9193 31.7447 45.3125 31.7447 45.75V46.0625C31.7447 46.4323 31.7942 46.776 31.8931 47.0938C31.9973 47.4062 32.1483 47.6797 32.3463 47.9141C32.5442 48.1484 32.7838 48.3333 33.065 48.4688C33.3463 48.599 33.6666 48.6641 34.0259 48.6641C34.4791 48.6641 34.8827 48.5729 35.2369 48.3906C35.591 48.2083 35.8983 47.9505 36.1588 47.6172L37.1509 48.5781C36.9686 48.8438 36.7317 49.099 36.44 49.3438C36.1483 49.5833 35.7916 49.7786 35.3697 49.9297C34.953 50.0807 34.4686 50.1562 33.9166 50.1562ZM41.1387 43.1562V50H39.2559V41.5469H41.0528L41.1387 43.1562ZM43.7247 41.4922L43.7091 43.2422C43.5945 43.2214 43.4695 43.2057 43.3341 43.1953C43.2039 43.1849 43.0736 43.1797 42.9434 43.1797C42.6205 43.1797 42.3367 43.2266 42.0919 43.3203C41.8471 43.4089 41.6414 43.5391 41.4747 43.7109C41.3132 43.8776 41.1882 44.0807 41.0997 44.3203C41.0111 44.5599 40.9591 44.8281 40.9434 45.125L40.5137 45.1562C40.5137 44.625 40.5658 44.1328 40.67 43.6797C40.7742 43.2266 40.9304 42.8281 41.1387 42.4844C41.3523 42.1406 41.6179 41.8724 41.9356 41.6797C42.2585 41.487 42.6309 41.3906 43.0528 41.3906C43.1674 41.3906 43.2898 41.401 43.42 41.4219C43.5554 41.4427 43.657 41.4661 43.7247 41.4922ZM54.3566 45.7578H51.3956V44.2031H54.3566C54.8722 44.2031 55.2889 44.1198 55.6066 43.9531C55.9243 43.7865 56.156 43.5573 56.3019 43.2656C56.4529 42.9688 56.5284 42.6302 56.5284 42.25C56.5284 41.8906 56.4529 41.5547 56.3019 41.2422C56.156 40.9245 55.9243 40.6693 55.6066 40.4766C55.2889 40.2839 54.8722 40.1875 54.3566 40.1875H51.9972V50H50.0363V38.625H54.3566C55.2368 38.625 55.9842 38.7812 56.5988 39.0938C57.2185 39.401 57.6899 39.8281 58.0128 40.375C58.3357 40.9167 58.4972 41.5365 58.4972 42.2344C58.4972 42.9688 58.3357 43.599 58.0128 44.125C57.6899 44.651 57.2185 45.0547 56.5988 45.3359C55.9842 45.6172 55.2368 45.7578 54.3566 45.7578ZM65.6334 48.0078V41.5469H67.5241V50H65.7428L65.6334 48.0078ZM65.8991 46.25L66.5319 46.2344C66.5319 46.8021 66.4694 47.3255 66.3444 47.8047C66.2194 48.2786 66.0267 48.6927 65.7663 49.0469C65.5058 49.3958 65.1725 49.6693 64.7663 49.8672C64.36 50.0599 63.873 50.1562 63.3053 50.1562C62.8939 50.1562 62.5163 50.0964 62.1725 49.9766C61.8288 49.8568 61.5319 49.6719 61.2819 49.4219C61.0371 49.1719 60.847 48.8464 60.7116 48.4453C60.5761 48.0443 60.5084 47.5651 60.5084 47.0078V41.5469H62.3913V47.0234C62.3913 47.3307 62.4277 47.5885 62.5006 47.7969C62.5735 48 62.6725 48.1641 62.7975 48.2891C62.9225 48.4141 63.0683 48.5026 63.235 48.5547C63.4017 48.6068 63.5788 48.6328 63.7663 48.6328C64.3027 48.6328 64.7246 48.5286 65.0319 48.3203C65.3444 48.1068 65.5657 47.8203 65.6959 47.4609C65.8314 47.1016 65.8991 46.6979 65.8991 46.25ZM71.8166 43.2656V50H69.9337V41.5469H71.7072L71.8166 43.2656ZM71.5119 45.4609L70.8712 45.4531C70.8712 44.8698 70.9442 44.3307 71.09 43.8359C71.2358 43.3411 71.4494 42.9115 71.7306 42.5469C72.0119 42.1771 72.3608 41.8932 72.7775 41.6953C73.1994 41.4922 73.6864 41.3906 74.2384 41.3906C74.6239 41.3906 74.9754 41.4479 75.2931 41.5625C75.616 41.6719 75.8947 41.8464 76.1291 42.0859C76.3686 42.3255 76.5509 42.6328 76.6759 43.0078C76.8061 43.3828 76.8712 43.8359 76.8712 44.3672V50H74.9884V44.5312C74.9884 44.1198 74.9259 43.7969 74.8009 43.5625C74.6811 43.3281 74.5067 43.1615 74.2775 43.0625C74.0535 42.9583 73.7853 42.9062 73.4728 42.9062C73.1186 42.9062 72.8166 42.974 72.5666 43.1094C72.3218 43.2448 72.1212 43.4297 71.965 43.6641C71.8087 43.8984 71.6942 44.1693 71.6212 44.4766C71.5483 44.7839 71.5119 45.112 71.5119 45.4609ZM76.7541 44.9609L75.8712 45.1562C75.8712 44.6458 75.9416 44.1641 76.0822 43.7109C76.228 43.2526 76.439 42.8516 76.715 42.5078C76.9962 42.1589 77.3426 41.8854 77.7541 41.6875C78.1655 41.4896 78.6369 41.3906 79.1681 41.3906C79.6004 41.3906 79.9858 41.4505 80.3244 41.5703C80.6681 41.6849 80.9598 41.8672 81.1994 42.1172C81.439 42.3672 81.6212 42.6927 81.7462 43.0938C81.8712 43.4896 81.9337 43.9688 81.9337 44.5312V50H80.0431V44.5234C80.0431 44.0964 79.9806 43.7656 79.8556 43.5312C79.7358 43.2969 79.564 43.1354 79.34 43.0469C79.116 42.9531 78.8478 42.9062 78.5353 42.9062C78.2436 42.9062 77.9858 42.9609 77.7619 43.0703C77.5431 43.1745 77.3582 43.3229 77.2072 43.5156C77.0561 43.7031 76.9416 43.9193 76.8634 44.1641C76.7905 44.4089 76.7541 44.6745 76.7541 44.9609ZM86.2419 43.1719V53.25H84.3591V41.5469H86.0934L86.2419 43.1719ZM91.7497 45.6953V45.8594C91.7497 46.474 91.6768 47.0443 91.5309 47.5703C91.3903 48.0911 91.1794 48.5469 90.8981 48.9375C90.6221 49.3229 90.2809 49.6224 89.8747 49.8359C89.4684 50.0495 88.9997 50.1562 88.4684 50.1562C87.9424 50.1562 87.4815 50.0599 87.0856 49.8672C86.695 49.6693 86.3643 49.3906 86.0934 49.0312C85.8226 48.6719 85.6039 48.25 85.4372 47.7656C85.2757 47.276 85.1611 46.7396 85.0934 46.1562V45.5234C85.1611 44.9036 85.2757 44.3411 85.4372 43.8359C85.6039 43.3307 85.8226 42.8958 86.0934 42.5312C86.3643 42.1667 86.695 41.8854 87.0856 41.6875C87.4762 41.4896 87.932 41.3906 88.4528 41.3906C88.9841 41.3906 89.4554 41.4948 89.8669 41.7031C90.2783 41.9062 90.6247 42.1979 90.9059 42.5781C91.1872 42.9531 91.3981 43.4062 91.5387 43.9375C91.6794 44.4635 91.7497 45.0495 91.7497 45.6953ZM89.8669 45.8594V45.6953C89.8669 45.3047 89.8304 44.9427 89.7575 44.6094C89.6846 44.2708 89.57 43.974 89.4137 43.7188C89.2575 43.4635 89.057 43.2656 88.8122 43.125C88.5726 42.9792 88.2835 42.9062 87.945 42.9062C87.6117 42.9062 87.3252 42.9635 87.0856 43.0781C86.846 43.1875 86.6455 43.3411 86.4841 43.5391C86.3226 43.737 86.1976 43.9688 86.1091 44.2344C86.0205 44.4948 85.958 44.7786 85.9216 45.0859V46.6016C85.9841 46.9766 86.0908 47.3203 86.2419 47.6328C86.3929 47.9453 86.6065 48.1953 86.8825 48.3828C87.1637 48.5651 87.5231 48.6562 87.9606 48.6562C88.2992 48.6562 88.5882 48.5833 88.8278 48.4375C89.0674 48.2917 89.2627 48.0911 89.4137 47.8359C89.57 47.5755 89.6846 47.276 89.7575 46.9375C89.8304 46.599 89.8669 46.2396 89.8669 45.8594Z" fill="#63676A"/>
<path d="M55.25 15.625C55.25 15.625 57.75 18.3375 57.75 20C57.75 20.663 57.4866 21.2989 57.0178 21.7678C56.5489 22.2366 55.913 22.5 55.25 22.5C54.587 22.5 53.9511 22.2366 53.4822 21.7678C53.0134 21.2989 52.75 20.663 52.75 20C52.75 18.3375 55.25 15.625 55.25 15.625ZM37.75 20V8.75C37.087 8.75 36.4511 8.48661 35.9822 8.01777C35.5134 7.54893 35.25 6.91304 35.25 6.25C35.25 5.58696 35.5134 4.95107 35.9822 4.48223C36.4511 4.01339 37.087 3.75 37.75 3.75V2.5C37.75 1.83696 38.0134 1.20107 38.4822 0.732233C38.9511 0.263392 39.587 0 40.25 0H42.75C43.413 0 44.0489 0.263392 44.5178 0.732233C44.9866 1.20107 45.25 1.83696 45.25 2.5V3.75H55.25C55.913 3.75 56.5489 4.01339 57.0178 4.48223C57.4866 4.95107 57.75 5.58696 57.75 6.25V11.25C58.0815 11.25 58.3995 11.3817 58.6339 11.6161C58.8683 11.8505 59 12.1685 59 12.5C59 12.8315 58.8683 13.1495 58.6339 13.3839C58.3995 13.6183 58.0815 13.75 57.75 13.75H52.75C52.4185 13.75 52.1005 13.6183 51.8661 13.3839C51.6317 13.1495 51.5 12.8315 51.5 12.5C51.5 12.1685 51.6317 11.8505 51.8661 11.6161C52.1005 11.3817 52.4185 11.25 52.75 11.25V8.75H45.25V20H46.5C47.163 20 47.7989 20.2634 48.2678 20.7322C48.7366 21.2011 49 21.837 49 22.5V25H34V22.5C34 21.837 34.2634 21.2011 34.7322 20.7322C35.2011 20.2634 35.837 20 36.5 20H37.75Z" fill="#C2DD54"/>
</svg>
